<?xml version="1.0" standalone="no"?>
<!DOCTYPE svg PUBLIC "-//W3C//DTD SVG 20010904//EN"
 "http://www.w3.org/TR/2001/REC-SVG-20010904/DTD/svg10.dtd">
<svg version="1.0" xmlns="http://www.w3.org/2000/svg"
 width="1534.000000pt" height="1534.000000pt" viewBox="0 0 1534.000000 1534.000000"
 preserveAspectRatio="xMidYMid meet">
<metadata>
Created by potrace 1.14, written by Peter Selinger 2001-2017
</metadata>
<g transform="translate(0.000000,1534.000000) scale(0.100000,-0.100000)"
fill="#000000" stroke="none">
<path d="M7630 15319 c-30 -4 -102 -16 -160 -24 -178 -28 -383 -73 -553 -121
-236 -67 -259 -73 -407 -103 -117 -24 -141 -32 -181 -62 -25 -20 -82 -55 -125
-79 -118 -64 -160 -95 -255 -185 -59 -57 -99 -87 -132 -98 -26 -10 -66 -24
-90 -32 -23 -8 -99 -57 -167 -109 -226 -169 -378 -311 -806 -753 -216 -223
-249 -261 -279 -325 -19 -40 -35 -80 -35 -88 0 -47 -36 -115 -97 -182 -41 -45
-78 -100 -98 -143 -18 -38 -58 -101 -89 -140 -30 -38 -65 -95 -77 -125 -12
-30 -61 -140 -110 -245 -48 -104 -97 -226 -109 -270 -29 -102 -42 -144 -74
-228 -36 -94 -53 -204 -71 -457 -8 -118 -20 -271 -26 -340 -25 -279 11 -701
101 -1185 43 -230 119 -665 135 -770 11 -69 24 -109 57 -173 42 -82 42 -83 22
-102 -15 -16 -39 -21 -114 -26 -138 -10 -190 -42 -245 -151 -31 -64 -42 -137
-26 -186 7 -19 46 -73 87 -119 88 -98 147 -208 170 -318 13 -62 15 -104 8
-245 -5 -93 -8 -327 -7 -520 l3 -349 30 -62 c16 -34 40 -108 54 -165 14 -57
57 -212 96 -344 82 -274 130 -458 130 -496 0 -15 -9 -37 -19 -50 l-19 -24 58
-17 c60 -19 218 -116 257 -159 39 -42 52 -92 63 -239 20 -266 63 -510 150
-845 109 -419 185 -589 485 -1068 211 -339 227 -368 255 -468 53 -194 0 -470
-113 -588 -51 -52 -230 -197 -385 -310 -205 -149 -332 -227 -432 -264 -139
-51 -136 -72 22 -141 100 -44 137 -79 352 -331 290 -340 309 -360 454 -482 27
-23 89 -94 137 -158 48 -63 106 -128 128 -144 164 -112 897 -404 1399 -556
295 -90 593 -156 695 -155 27 1 26 2 -26 51 -29 27 -89 68 -133 90 -84 42
-138 86 -219 180 -62 71 -76 129 -59 247 15 111 42 160 110 197 47 26 55 35
62 70 5 22 19 50 31 63 30 33 108 71 192 94 38 11 99 35 134 55 63 35 65 35
340 64 152 16 368 36 481 45 113 8 242 24 288 34 53 13 119 20 181 20 130 0
196 13 249 50 35 25 50 29 76 24 18 -3 81 1 140 10 90 14 127 25 226 71 94 44
139 58 217 71 214 34 228 38 388 134 294 174 355 214 419 272 82 74 257 271
368 413 47 61 110 136 141 167 49 49 59 67 81 140 30 97 64 154 130 218 69 66
62 100 -24 119 -65 15 -81 39 -73 112 10 97 -32 119 -97 49 -32 -34 -43 -40
-79 -40 -87 0 -125 -34 -160 -141 -18 -57 -73 -113 -141 -143 -51 -23 -61 -31
-58 -49 2 -18 18 -27 79 -47 42 -14 87 -33 100 -43 24 -17 24 -17 -22 -11 -35
4 -58 1 -98 -16 -71 -31 -101 -69 -101 -129 0 -26 -5 -52 -12 -59 -7 -7 -40
-12 -78 -12 -86 0 -104 -16 -104 -98 l-1 -57 -125 -62 c-146 -73 -164 -90
-156 -148 7 -47 2 -57 -41 -79 -46 -23 -98 -78 -149 -157 -25 -38 -54 -75 -66
-84 -36 -25 -117 -20 -160 10 -60 41 -92 43 -125 8 -15 -16 -36 -43 -45 -61
-22 -41 -55 -55 -228 -98 -74 -18 -161 -42 -192 -54 -98 -34 -244 -24 -338 25
-19 10 -53 33 -75 52 l-40 34 -77 -7 c-66 -6 -83 -4 -120 15 -24 11 -54 35
-67 52 -34 46 -78 60 -159 53 -38 -4 -76 -3 -84 2 -9 5 -43 45 -75 89 -81 108
-139 172 -220 238 -57 46 -76 56 -113 59 -41 3 -46 7 -85 63 -27 40 -65 77
-115 113 -118 83 -154 116 -231 208 -39 47 -105 110 -145 140 -66 49 -78 63
-110 130 -30 64 -55 95 -164 204 -143 143 -200 211 -235 279 -13 25 -43 67
-67 92 -24 25 -68 88 -98 139 -30 52 -75 115 -100 140 l-44 45 -2 80 c-1 58
-10 107 -33 178 -30 97 -33 148 -7 165 6 4 38 7 71 7 56 0 60 2 80 32 24 39
31 40 55 10 l18 -22 31 29 c17 17 31 38 31 49 0 10 -20 56 -45 101 -49 90 -52
109 -31 161 11 27 21 35 40 35 19 0 27 -8 37 -37 18 -57 27 -63 79 -62 59 2
67 -3 80 -51 11 -42 -1 -82 -34 -109 -32 -27 -8 -39 77 -37 101 1 116 -7 302
-160 95 -78 155 -119 221 -150 60 -29 121 -69 175 -115 187 -158 379 -223 749
-254 102 -8 233 -22 291 -31 86 -13 117 -14 162 -4 110 22 261 150 255 214 -5
52 -56 69 -218 74 -119 4 -145 2 -215 -18 -44 -13 -110 -23 -146 -23 -60 -1
-75 4 -195 61 -71 34 -145 65 -164 68 -47 9 -80 30 -80 54 0 10 18 40 40 65
l40 46 -3 80 c-2 77 -1 82 26 105 23 20 39 24 92 24 35 0 99 7 142 16 43 8
141 19 218 23 99 6 177 17 265 39 69 17 152 34 185 37 67 8 95 26 95 61 0 13
-8 27 -17 32 -31 16 -160 42 -210 42 -55 0 -129 32 -240 103 -288 185 -444
192 -903 42 -285 -93 -385 -100 -558 -36 -47 18 -103 31 -128 31 -41 0 -51 -5
-100 -51 -62 -59 -87 -64 -186 -34 -64 18 -68 27 -38 79 17 27 20 44 14 83 -8
62 7 98 74 182 58 72 64 96 27 113 -31 14 -48 1 -81 -64 -13 -26 -33 -52 -44
-58 -17 -9 -23 -5 -45 30 -14 22 -40 47 -58 55 -42 18 -155 55 -189 62 -28 5
-28 5 -28 -50 0 -79 -18 -93 -120 -99 l-45 -3 -5 -136 c-6 -130 -7 -139 -40
-205 -30 -58 -39 -70 -63 -72 -35 -4 -87 30 -155 102 -65 69 -84 108 -137 285
-24 81 -75 235 -113 342 -38 107 -75 212 -82 234 -28 88 -161 335 -210 388
-61 67 -70 90 -70 178 0 82 -15 116 -90 204 -28 33 -68 92 -89 130 -22 39 -54
97 -72 130 -32 56 -34 65 -30 135 3 41 4 131 4 200 0 109 -3 134 -26 198 -37
105 -98 207 -188 312 -101 118 -115 142 -129 220 -15 87 -36 130 -107 225 -32
44 -62 87 -65 97 -7 18 12 38 54 56 15 6 35 23 44 37 23 36 92 74 145 81 30 4
84 -2 160 -17 95 -19 146 -23 304 -24 l190 0 95 50 c52 27 161 82 241 121 178
87 189 99 189 199 0 91 11 104 76 87 57 -15 106 3 129 48 15 29 15 33 0 50 -9
10 -31 21 -48 24 -18 3 -53 17 -79 31 -26 14 -59 25 -73 25 -18 0 -28 7 -35
25 -13 34 4 79 28 72 95 -30 142 -39 234 -44 228 -12 354 48 441 212 47 89 72
95 234 60 44 -10 63 -43 63 -112 0 -54 4 -68 25 -88 15 -15 36 -25 54 -25 16
0 36 -3 45 -6 28 -11 19 -59 -19 -104 -49 -59 -46 -75 20 -105 116 -51 138
-78 154 -195 9 -64 16 -83 61 -147 155 -222 180 -448 80 -713 -25 -67 -28 -87
-27 -180 1 -121 -13 -177 -73 -280 -21 -36 -46 -89 -56 -119 -15 -44 -37 -73
-114 -151 -67 -69 -117 -132 -170 -216 -41 -65 -100 -159 -132 -208 -52 -80
-58 -94 -58 -142 0 -43 8 -68 44 -136 23 -45 50 -86 58 -92 10 -6 32 -1 71 17
42 19 66 24 96 20 34 -5 41 -3 41 11 0 10 -14 30 -32 46 -30 28 -31 30 -20 69
10 33 10 46 -4 80 -18 47 -16 80 8 95 24 14 66 -17 98 -75 21 -37 25 -57 24
-124 0 -86 -19 -139 -64 -180 -31 -28 -40 -48 -51 -116 -13 -78 -3 -94 58
-103 26 -3 82 -23 123 -44 l75 -37 147 3 c116 2 168 -1 253 -17 58 -12 144
-21 191 -21 102 0 164 22 371 131 99 51 142 69 172 69 34 0 44 5 71 40 42 53
51 57 169 75 160 24 251 68 251 121 0 35 -22 46 -77 38 -50 -6 -94 8 -134 42
-9 8 -60 38 -115 67 -99 53 -99 53 -140 129 -58 107 -100 155 -222 250 -59 46
-123 99 -143 118 l-36 35 -6 140 c-3 77 -10 153 -17 169 -10 26 -7 35 23 85
54 88 75 134 95 207 13 47 36 95 74 150 108 158 127 242 127 559 -1 194 -4
258 -20 335 -10 52 -28 154 -39 225 -58 360 -100 557 -143 661 -51 127 -163
269 -291 370 -92 73 -357 213 -454 240 -68 19 -75 27 -86 89 -4 22 -23 68 -42
103 -19 34 -34 64 -34 65 0 2 16 1 35 -1 19 -2 42 1 50 8 24 20 18 68 -11 97
-21 21 -32 24 -60 20 -30 -5 -41 -1 -73 29 -72 65 -91 42 -67 -79 9 -45 16
-102 16 -127 0 -100 -78 -149 -118 -74 -8 16 -7 27 9 50 27 41 24 62 -16 100
-37 34 -33 48 12 42 34 -4 51 21 36 55 -16 35 -156 103 -228 112 -34 5 -87 2
-133 -6 -42 -7 -129 -12 -192 -10 -119 2 -135 -1 -370 -69 -89 -26 -159 -24
-271 5 -109 29 -155 31 -223 10 -102 -31 -173 -17 -248 50 -34 32 -39 33 -95
28 -74 -7 -81 1 -87 98 -5 91 -26 137 -101 219 -66 72 -72 99 -46 202 28 107
64 174 132 240 62 60 73 90 39 108 -24 13 -48 2 -103 -46 -45 -41 -72 -46 -56
-11 7 16 7 40 1 76 -12 68 -1 119 44 192 18 31 34 66 34 78 0 12 -19 42 -42
67 l-41 45 16 35 c23 47 22 59 -13 132 -29 62 -38 115 -22 138 13 20 50 34 90
34 48 0 60 13 67 70 3 24 20 67 37 94 19 32 33 69 36 99 5 51 2 49 87 62 55 9
108 46 130 91 10 21 20 70 23 109 3 40 13 86 23 107 21 42 21 41 -40 87 l-25
18 27 32 c25 30 26 34 13 59 -8 15 -26 38 -40 51 -15 14 -40 47 -57 73 -44 68
-39 127 21 229 52 91 63 154 31 183 -28 25 -27 31 9 46 37 15 50 36 43 71 -2
14 5 53 16 87 19 55 20 66 8 95 -8 17 -21 38 -30 45 -26 22 -80 25 -121 8 -54
-23 -63 -10 -23 33 19 20 38 52 42 71 10 51 49 113 90 144 57 44 96 56 177 53
67 -2 80 1 148 35 58 29 99 41 180 53 138 20 206 38 310 81 202 85 211 86 435
76 110 -5 207 -12 216 -16 11 -5 24 0 36 13 31 33 72 43 150 36 57 -5 90 -2
160 16 116 29 203 28 323 -4 158 -43 240 -51 485 -52 261 0 279 3 470 75 95
35 175 57 296 79 276 51 416 110 568 241 l83 72 201 30 c170 25 223 29 335 25
114 -4 134 -2 140 11 12 31 -100 111 -218 156 -41 16 -181 75 -310 131 -129
56 -278 119 -332 139 -190 71 -509 148 -854 206 -178 30 -179 30 -564 29 -212
-1 -410 -5 -440 -10z m-1001 -5758 c32 -9 64 -52 55 -74 -10 -27 -49 -43 -174
-70 -137 -31 -278 -47 -417 -48 -98 -1 -105 0 -183 36 -44 21 -80 41 -80 45 0
22 222 83 360 99 165 19 391 26 439 12z m301 -252 c77 -21 152 -54 228 -103
33 -20 42 -32 40 -49 -5 -37 -45 -42 -191 -28 -72 7 -288 16 -479 18 -401 6
-423 10 -320 62 87 44 199 79 327 101 181 32 269 32 395 -1z"/>
<path d="M10358 10580 c-90 -15 -218 -89 -218 -126 0 -6 9 -23 20 -37 11 -14
20 -32 20 -40 0 -19 -42 -35 -48 -18 -9 28 -35 42 -61 34 -33 -10 -129 -9
-158 1 -18 7 -26 2 -43 -25 -35 -58 -21 -71 54 -53 28 7 29 6 22 -22 -19 -76
-18 -82 2 -93 29 -16 43 -8 107 65 31 36 59 63 62 61 2 -3 -5 -24 -17 -47 -12
-24 -22 -63 -23 -88 0 -38 4 -49 28 -70 27 -22 34 -24 98 -17 39 3 143 1 231
-6 143 -11 170 -10 235 4 70 16 76 16 150 -2 127 -33 173 -36 250 -16 64 17
71 17 110 2 54 -22 75 -21 128 5 39 20 47 21 76 9 94 -39 120 -39 214 0 39 16
45 11 52 -44 5 -36 10 -42 32 -45 36 -4 59 22 59 67 0 67 -18 99 -79 140 -160
108 -272 137 -425 110 -72 -13 -154 -2 -170 23 -8 13 -6 26 8 55 l18 38 -39
33 c-21 19 -58 47 -82 63 l-45 29 -155 -6 c-120 -5 -176 -2 -245 10 -96 17
-99 17 -168 6z"/>
<path d="M10215 9759 c-272 -36 -326 -48 -417 -96 -48 -26 -88 -51 -88 -57 0
-6 18 -28 40 -50 56 -54 63 -88 52 -261 -10 -160 -22 -193 -83 -232 -69 -45
-79 -54 -79 -77 0 -57 82 -81 243 -73 132 6 209 27 250 68 27 28 29 34 23 79
-6 45 -4 51 19 66 36 23 77 4 109 -50 56 -95 145 -149 278 -169 130 -19 240
14 326 97 45 43 101 135 122 198 6 21 15 40 20 43 5 3 60 -22 122 -56 215
-119 233 -128 310 -148 100 -27 112 -26 137 5 26 33 27 90 4 140 -21 43 -94
83 -253 139 -235 81 -461 109 -893 108 -347 -1 -364 4 -214 61 42 17 51 46 13
46 -35 0 -50 23 -28 43 51 46 223 80 488 97 193 13 256 7 464 -40 175 -39 217
-45 235 -30 19 16 19 44 1 60 -21 17 -192 56 -327 75 -134 19 -761 29 -874 14z"/>
<path d="M9950 4541 c-36 -11 -84 -25 -108 -32 -40 -12 -47 -12 -86 9 l-43 23
-54 -21 c-31 -13 -84 -23 -124 -25 -38 -2 -73 -4 -77 -4 -14 -2 -29 -42 -23
-61 9 -29 38 -33 107 -13 57 16 104 17 481 14 429 -3 447 -2 447 35 0 8 -9 23
-20 34 -17 17 -33 20 -114 20 -58 0 -110 6 -137 15 -72 26 -174 28 -249 6z"/>
</g>
</svg>
