<svg id="Слой_1" data-name="Слой 1" xmlns="http://www.w3.org/2000/svg" viewBox="0 0 923.09 167.68"><path d="M49.59 99.17a11.14 11.14 0 01.41 15.76l-.38.38-4 4a11.14 11.14 0 01-15.76.38l-.38-.38-26-25.95a11.14 11.14 0 01-.41-15.76l.38-.38 4-4a11.14 11.14 0 0115.76-.38l.38.38zM46.7 49.58a11.14 11.14 0 00-15.76-.38l-.38.38-4 4a11.14 11.14 0 00-.38 15.76l.38.38 26 26a11.14 11.14 0 0015.76.38l.38-.38 4-4a11.14 11.14 0 00.38-15.76l-.38-.38zm69.19 23.07a11.12 11.12 0 00-15.73-.4c-.14.13-.28.26-.41.4l-4 4a11.16 11.16 0 00-.37 15.78c.12.13.24.25.37.37l26 25.94a11.14 11.14 0 0015.76.38c.13-.13.26-.25.38-.38l4-4a11.16 11.16 0 00.37-15.74c-.12-.13-.24-.25-.37-.37zM139.54 49a11.14 11.14 0 00-15.76-.38c-.13.13-.26.25-.38.38l-4 4a11.16 11.16 0 00-.4 15.79c.12.13.24.25.37.37l25.98 25.94a11.12 11.12 0 0015.73.41c.14-.14.28-.27.41-.41l4-4a11.16 11.16 0 00.37-15.78c-.12-.13-.24-.25-.37-.37zM96.3 23.64a11.14 11.14 0 00.38-15.76c-.13-.13-.25-.26-.38-.38l-4-4a11.14 11.14 0 00-15.76-.38l-.38.38-25.95 25.94a11.16 11.16 0 00-.37 15.78c.12.13.24.25.37.37l4 4a11.12 11.12 0 0015.73.41l.41-.41zm23.06 23.06a11.14 11.14 0 00.38-15.76l-.38-.38-4-4a11.14 11.14 0 00-15.76-.38l-.38.38-25.95 26a11.14 11.14 0 00-.38 15.76l.38.38 4 4A11.14 11.14 0 0093 73c.13-.13.26-.25.38-.38zm-23.06 68a11.16 11.16 0 00.37-15.78c-.12-.13-.24-.25-.37-.37l-4-4a11.12 11.12 0 00-15.73-.4c-.14.13-.28.26-.41.4l-25.95 25.94a11.16 11.16 0 00-.37 15.78c.12.13.24.25.37.37l4 4A11.14 11.14 0 0070 141c.13-.13.26-.25.38-.38zm23.06 23.06a11.16 11.16 0 00.37-15.78c-.12-.13-.24-.25-.37-.37l-4-4a11.14 11.14 0 00-15.76-.38l-.38.38-25.37 26.52a11.14 11.14 0 00-.38 15.76l.38.38 4 4a11.14 11.14 0 0015.76.38c.13-.13.26-.25.38-.38zm189.11-22.49c.58 1.16 4 6.34 4 6.34-1.73 8.08-6.92 19-6.92 19l-.58.58c-19 7.49-49 13.84-80.72 1.15-19-7.49-32.86-22.48-38.05-42.09a68.61 68.61 0 0111-59.38C211 22.42 232.94 12 262.92 10.31c11.54-.58 34.6 2.3 47.28 9.8h1.16s.57 31.71 0 32.86l-.58 1.73-9.23.58-.55-3.46c-1.73-9.22-5.77-33.44-39.79-31.71-14.41.58-26.52 8.07-35.17 19.6-11 14.42-13.83 33.44-9.22 55.35 4.61 20.76 20.76 34 32.86 39.21 5.19 1.73 21.34 5.76 33.44 0 10.38-5.19 20.76-13.26 25.37-19m116.47 33.44v-109c0-3.46 0-9.22-3.46-13.26-.58-.57-5.77-4.61-5.77-4.61v-4.61l29.41-5.77 2.86 1.73v117c.58 11 8.07 12.11 8.07 12.11v6.92zm129.72-7.49c-5.18-1.16-8.07-5.77-8.07-13.26V58.81l-2.3-1.15-29.41 5.76V68s5.19 4 5.77 4.62c3.46 4 3.46 9.8 3.46 13.26v41c-9.8 7.5-18.45 9.81-24.8 6.92-4.61-2.3-7.49-8.07-7.49-16.14V58.81l-2.28-1.15-29.4 5.76V68s5.19 4 5.76 4.62c4 4 4 9.8 3.46 13.26v35.17a48.8 48.8 0 001.16 12.11c1.73 7.49 6.34 12.68 12.68 15 10.38 4 25.37 0 40.94-10.38v9.8h32.28v-6.34zm146.45 0c-5.19-1.16-7.49-5.77-8.07-13.26V85.89c0-9.8-5.19-28.25-24.22-28.25-14.41 0-23.63 8.64-28.82 13.26a21.87 21.87 0 00-20.76-13.26c-9.23 0-17.3 3.46-25.37 10.37v-8.62L591 57.66l-29.45 5.76V68s5.19 4 5.77 4.62c3.46 4 3.46 9.8 3.46 13.26v61.72h32.29v-6.34l-1.73-.58c-5.19-1.15-7.5-5.19-7.5-13.26V77.89a22.68 22.68 0 0117.3-5.19c4.61.57 9.8 4 9.8 21.33v53h31.71v-6.34l-1.73-.58c-5.19-1.15-7.49-5.18-8.07-13.26v-42.1a32.69 32.69 0 00-.58-6.91c5.77-5.19 11.53-5.77 17.3-5.19 4.61.57 9.8 4 9.8 21.33v53h31.71v-5.76zm-286.57-38c0-13.26-4.61-25.36-12.68-33.44-8.65-8.64-20.76-13.26-35.75-13.26-27.68 0-48.43 20.18-48.43 46.7 0 28.26 19 46.71 48.43 46.71 13.84 0 26.52-4.62 35.17-13.26a48.06 48.06 0 0013.26-33.45m-48.43 36.33c-17.87 0-23.06-13.84-23.06-36.9 0-16.72 5.19-36.9 23.06-36.9s23.06 20.18 23.06 36.9c0 23.06-5.19 36.9-23.06 36.9M809.54 29.4a12.11 12.11 0 0124.21 0 11.83 11.83 0 01-11.54 12.11h-.57a12.17 12.17 0 01-12.1-12.11m1.15 118.2V85.33c0-3.46 0-9.22-3.46-13.26-.58-.58-5.77-4.61-5.77-4.61v-4.57l29.41-5.77 2.88 1.73V128c0 7.49 2.88 12.1 7.5 13.26l1.73.57v6.35zM793.93 79c-6.34-11-14.42-17.87-24.22-20.18-13.83-3.46-27.67 2.88-36.32 7.49V12.68L730.54 11l-29.41 5.77v4.61s5.19 4 5.77 4.62c3.46 4 3.46 9.22 3.46 13.26v102l1.15.57c16.72 8.65 38.63 9.81 54.77 3.46 17.88-7.49 26-20.18 28.83-29.4 5.77-14.41 3.46-28.83-1.15-36.9m-24.22 48.43c-5.19 8.65-15.56 13.84-23.64 11.53s-12.68-10.95-12.68-24.21V77.26a1.78 1.78 0 001.15-.58c5.19-2.3 14.42-7.49 26.52-1.15a29.37 29.37 0 0113.84 17.87c2.88 11 1.16 23.07-5.19 34m152.79 11l-1.73-.58c-1.15 0-3.46-3.46-3.46-8.65v-41c0-12.1-4-21.33-11-25.94-6.34-4.61-15-5.19-25.37-1.73-12.11 4-30 19.6-32.86 23.06l-.58.58v1.15c0 1.15 1.73 2.88 2.3 4l.58.57h20.18v-5.72c0-8.07 5.19-12.11 9.8-12.69s7.5-.57 9.8 1.16c2.89 2.3 4.62 8.07 4.62 17.29v5.19l-42.07 18.49-.58.58v.58c-4 11.53-2.88 20.75 2.31 27.09 8.65 9.81 30 11 61.11 4 2.31-.58 7.5-1.15 7.5-1.15-.58-.58-.58-6.34-.58-6.34m-27.1-34v31.71c-6.92 4.61-13.83 5.19-19 1.15-5.19-4.61-6.35-12.68-2.89-20.75z" transform="translate(.01 -.04)" fill="#fff"/></svg>