<svg version="1.1" id="Слой_1" xmlns="http://www.w3.org/2000/svg" x="0" y="0" viewBox="0 0 165 35" xml:space="preserve"><style/><path class="st0" d="M36 13.5l-13.5-.1L21.1 0l-7.3 13.4L0 13.3l9.1 8.4L1.9 35l13.4-8.5 9.4 8.4-1.3-13.5L36 13.5zM9.2 27.4l3.5-6.6L7.2 16l19.6.1L9.2 27.4zM157 33c-3.1 0-4.9-.9-6.1-2.7l-7.1-10.6-4.6 13.3H133l6.7-20h1.4c2.6 0 4.5.4 6 2.6l7.2 10.9 4.5-13.5h6.2l-6.7 20H157zM33 33l1.4-4.2h14.4c.8 0 1.6-.1 2.4-.5.3-.2.6-.5.7-.9 0-.2 0-.4-.1-.5-.3-.3-.7-.6-1.2-.7l-9.4-2.7c-1.8-.5-3.2-1.5-3.8-2.7-.4-.8-.5-1.8-.2-2.7.6-1.5 1.6-2.7 3-3.5 1.7-1.1 3.7-1.7 5.7-1.7H60l-1.4 4.2h-13c-.4 0-1.6 0-2 .5-.3.3-.4.7-.3 1.1.2.4.5.7.9.8l.5.2 9.4 2.7c1.8.5 3.1 1.5 3.7 2.6.4.9.5 1.9.2 2.8-.4 1.6-1.5 2.9-3 3.6-2.1 1.1-4.4 1.6-6.7 1.6H33zm29.3-20L61 17.1h8.3L64.2 33h6l5.1-15.9h7.4L84 13H62.3zm44.5 14.8l20.7-7.9c2.4-.9 2-2.7.5-2.7h-12.4l-1.4 4.3-6.1 2.3 3.6-10.8h17.9c1.3-.1 2.5.4 3.4 1.2.7.8 1.1 1.8 1 2.8-.1 2.5-2.1 5.3-4.9 6.7-.3.1-.7.3-1.2.5l4.3 8.6H126l-3.4-6.7L105 33l1.8-5.2zm1.9-10.6L110 13H88.1l-4.7 14.8c-1.1 3.4.8 5.2 3.4 5.2h16.8l1.3-4.2H91c-.4 0-1.1-.1-1.3-.4-.3-.4-.2-.9 0-1.4l.8-2.2h12.4l1.3-3.8H91.6l1.3-3.9c0 .1 15.8.1 15.8.1z"/></svg>