<svg xmlns="http://www.w3.org/2000/svg" viewBox="0 0 281.26 82.77">
	<defs>
		<style>
			.cls-1{fill:#04d7df;}
		</style>
	</defs>
	<title>
		мазки краски
	</title>
	<g id="objects">
		<path class="cls-1" d="M301.09-94.2c-.48,0-.95-.82-1.15-.7s-.83-.11-1-.27a2.27,2.27,0,0,1-.4-.94c0-.17-1.23-.61-1.66-.72a1.33,1.33,0,0,0-1,.27c-.06.11-1.17-1.81-1.63-2.07a3,3,0,0,1-.84-1.83,1.24,1.24,0,0,1,.61-1l.26-.67.21-.57a1.78,1.78,0,0,0,.36-1.41c-.07-.18-.34.06-.4.17a5.68,5.68,0,0,1-.31-1.38c-.05-.44-.77-.79-1-.79s-.3-1.3-.25-1.72a18.6,18.6,0,0,1,.76-2.58,6.24,6.24,0,0,0,.37-1.7,1.08,1.08,0,0,0-.41-.67,17.06,17.06,0,0,1,0-2.79,3.67,3.67,0,0,1,1-1.88c.25-.17,1.4-1.1,2.54-2a5.61,5.61,0,0,1,2.41-1c.17,0,.39,0,.5-.22.3-.71,1.6-.73,1.93-1s.55.66.92.1.71-.17,1.07-.06c.75.22,1.44-.75,2.17-.8h.06a19.19,19.19,0,0,1,2.27-.55,36.31,36.31,0,0,1,3.31-1.64l1.35-.35s1.14-.93,1.56-.9c.14,0,.39-.43.39-.51a3.36,3.36,0,0,0-1.05-.14c-.31,0-.27-.66-.19-.84a1.91,1.91,0,0,1,1-.56,6.91,6.91,0,0,1,2.2,1.47c.24.28,1.29.07,1.58.49l1-1.6a4.8,4.8,0,0,0,2.16.3l.14.36c.31.74.46-.48.73-.21a14.4,14.4,0,0,0,2.55.64c.29.07,1.46.15,1.46.15a9.18,9.18,0,0,1,2.27,1.19l.59-.12a2,2,0,0,0,.48-.67c.05-.19.31-.17.58,0l1,0a7.41,7.41,0,0,1,2.21.26c.18.13.9-.45,1.13-.26a.84.84,0,0,0,.93,0l.23,0,.3,0c.32.28.84.7,1.17.93l.33-.26.31-.24c.36.11,2.15.49,2.71.59a6.06,6.06,0,0,1,1.53.44l.13-.29c.22-.5.44-.64.69-.54a3.61,3.61,0,0,1,.58.43c.21.14.31-.69.63-.25a1.21,1.21,0,0,0,.95.44l.69.08a5.07,5.07,0,0,0,1.66.35l.13-.09.17-.11c.17-.12.72.41.89.36a1.8,1.8,0,0,1,.92.19l.31-.17c.28-.16.58,0,.87,0H352a2.16,2.16,0,0,1,.76,0l.26.11a7.71,7.71,0,0,0,1,.67l.24-.17.33-.23c.42-.13.84-.11.9,0a15.25,15.25,0,0,0,2.26,1.17s0,0,1.14-.31c.32-.1.66-.13,1,.45l.31.49c.48-.6,1-.77,1.12-.38l.1,0c.83-.27,1.61.48,2.42.64s1.55-.37,2.31.55c.37.44.82-.11,1.25.32a1.22,1.22,0,0,0,1.37.27c.46-.17.79.64,1.22.68.84.08,1.68-.23,2.53.5.65.57,1.37.08,2.09.53a18.25,18.25,0,0,0,2.07.76,5.56,5.56,0,0,0,1.11.57c.76.19,1.54-.2,2.31.56.38.38.86,0,1.29.09s.89.45,1.33.56a1.41,1.41,0,0,0,1.19,0c.36-.24.62.84,1,.17.25-.4.72.39,1.09.46a5.58,5.58,0,0,1,1.72.74c0,.13.33.08.61-.11l4.08.4a6.32,6.32,0,0,1,2.7,1c.12.18.4-.15.44-.27s.64,0,.87.11a2.22,2.22,0,0,1,.64,1.08c.09.34,1.27,1,1.65,1.12a1,1,0,0,0,.91-.26c.06-.12.26.07.44.42l1.7.1a18,18,0,0,0,4.27.53s1.54-.19,1.68.1l.58,1.25a2.75,2.75,0,0,0,1.55-.58c.06-.13.23.11.42.38.61.84,1.84-.13,1.84-.13.42.16,1.53.1,1.84.35a10.66,10.66,0,0,0,2.73,1,9.2,9.2,0,0,0,3.07.09,17,17,0,0,1,2.33,0,2.48,2.48,0,0,1-.12.9c-.06.16-.4.29-.75.29a3.65,3.65,0,0,0-1.31,0l-.25.13a1.71,1.71,0,0,0,.24,1.78l.27-.24c.35-.31.61.1.92.1.47,0,5.27.23,5.76-.07l.45-.27c.45.28,1.2.71,1.67.94h.44a20.42,20.42,0,0,1,2.07,0l.26,0c.3.28.58.43.63.34l.06-.12c.46-1,.85.33,1.28.35s.82-1.25,1.29-.42l.11.2a24.33,24.33,0,0,0,3.08.4,4,4,0,0,0,1.58-.08c0-.09.25.15.3.23s.37,0,.74-.28l.3-.06c.92-.19,1.8.79,2.74.65a12,12,0,0,1,2.18-.18,8.31,8.31,0,0,1,2.83.58l.3-.17c.42-.25.79-.58,1.19.18a.26.26,0,0,0,.49,0l.52-1c.45.58,1.08.75,1.4.38l.11.2c.47.83,1,.54,1.45.54,4.31,0,10.77,0,10.77,0a13.13,13.13,0,0,0,3-.26c.22-.14,1.44.7,1.85.55a2.77,2.77,0,0,1,1.45,0,.37.37,0,0,0,.46-.07c0-.1.18.05.31.33h.11l.56,0a.88.88,0,0,1,1.39.29c.06.32.36-.58.42-.86a.84.84,0,0,1,.5-.52,9.48,9.48,0,0,1,.77,1.31c.13.26.48.06.78-.46l.38.48c.35.43.81.24,1.23.21.19,0,.38-.41.58-.42a25.25,25.25,0,0,1,2.61,0h.16c.12.19,1.38-.37,1.82-.29a.49.49,0,0,0,.62-.43c0-.12.43-.58.62-.71s.4.57.42.92.35.23.45.11.62.86.83.72a2.33,2.33,0,0,0,.44-1.07.66.66,0,0,1,.4-.48l.19-.18.17-.16c.16-.41.33-.22.35,0s.37.31.5.31.51-.63.61-.85.49.31.57.5.35-.22.59-.94l.29,1,.22.77c.25-.38.46-.41.46-.29a2.16,2.16,0,0,1-.32.62,4.39,4.39,0,0,0-.17,1.21c0,.28-.32.56-.72.61l-.26-.38-.49-.72c-.54.19-1.41.55-1.93.79l-.48.11c-.39.09-.94,0-1.29.35-.13.11-.26.28-.4.28-.83,0-1.66-.06-2.5,0a15.33,15.33,0,0,0-2.41.58c-.37.11-.73-.12-1.13.47-.3.43-.82.48-1.22-.26-.13-.23-.43-.36-.49-.16l-.31.91a8.53,8.53,0,0,0-2.89-.37h-3.26c-.22,0-.49-.23-.64.05l-.46.86a3.18,3.18,0,0,0-2.05.15l-.48-1a.17.17,0,0,0-.31,0c-.45,1-1,.54-1.44.56-1.49.06-3,0-4.46,0-.22,0-.5.24-.64,0-.34-.65-.59-.81-.93,0s-.57-1.11-1-.34c-.24.49-.5-.7-.71-.21-.32.74-.66.57-1,.57-2.93,0-5.87,0-8.81,0a1.43,1.43,0,0,1-.65,0c-.19-.1-.37-.44-.56-.57l-.22-.14c-.19.4-.48.58-.65.4l-.17.32-.19.39a3.39,3.39,0,0,0-.95-1.08l-.32.11c-.38.13-.77.7-1.1.47L443-99.1a7.78,7.78,0,0,0-2.65-.34h-3.26a5.86,5.86,0,0,0-2.75.53l-.15-.28-.4-.79c-.28.63-.66.93-.86.67l-.16-.13c-.54-.43-1,.64-1.54.61l-.72,0a3.15,3.15,0,0,0-1.89.8c-.16.24,1.43.26,2,.93l.19.25c.34-.37,3.26-.73,3.43-.44a8.62,8.62,0,0,0,1.82.21c.32.12-1.75,1.93-1.58,1.93s.41.71.44.94,1.18-.93,1.51-.5,1.68-.49,1.68-.63a6.56,6.56,0,0,0-.53-1.14c-.14-.23.63-.86,1-.9s1.43.79,1.59.66.69.81.89.75-.09.32-.27.49-.76.37-.88.47.32.42.42.47a3.44,3.44,0,0,1,.19,1.23c0,.31-.21.46-.27.43a2.64,2.64,0,0,1-.16-.74c0-.14-.58.31-.78.51a.35.35,0,0,1-.52,0c0-.08-1.46,1-2,.73s-.7.56-.4.27l.56,0c.33.27,1.05-.26,1.35.11s1.57,1.85,1.76,2a.5.5,0,0,0,.5-.06s3.49-1.89,3.91-2,2.11,1.94,2.25,1.63l.36-.78c.31.44.74.3.8.14s1.43.09,1.38-.11,1.15.36,1.11.52.4-.29.42-.44.83.25.86,0,1.91,2.44,2.59,3c0,0,2.37-1.3,2.09-1.46,0,0-.82-.8-1-.78s-.12-.87,0-.76,5.81.2,5.81.2c.13.33,1,1.65,1.39,1.65s.83-.63.86-.84.15.37.17.52a2,2,0,0,0,.76.76s3.23-.29,4.27-.29l1,0c0-.34-.37-.62-.55-.62s.17-.89.21-.8a7.36,7.36,0,0,1,.7,1,2.05,2.05,0,0,0,.34.71c.11.15.26-.81.29-1.21s.18.06.2.31,3.92-.67,3.94-.87a.2.2,0,0,1,.29-.16c.06,0,0,.51,0,.65a9.55,9.55,0,0,0,3-.46c0-.2.4-.23.83,0l.34.39c.4.48.75-.16,1.13-.06s1.14,0,1.17-.23.58-.52,1.24-.73l1.21.67a8.59,8.59,0,0,0,3.1-.94c.52-.29,1.41-.31,1.65-.53,0,0,3.78-.3,4.14-.48s.89.38,1,.58-.37.94-.56,1.17,1.7-.06,1.82-.22.74.23.94.41,1.35-1.14,1.46-.89.64-.15.8-.35.39.33.43.54,1,0,1.52-.18,1-.79,1.43-.5,7.68-2.69,7.68-2.69c.55,0,1.49,0,2.09.07,0,0,1.45-.84,1.91-1.15a6.7,6.7,0,0,0,1.63-1.7,3.71,3.71,0,0,1,.93-1.14,1.8,1.8,0,0,0,.36-1.06c0-.2-.68-.22-1.49,0l-.56,1.58a.16.16,0,0,1-.31,0l-.26-.93a8.28,8.28,0,0,1-1.24,1l-.72,0a3.48,3.48,0,0,0-1.52.64l-1.53.08c-.19-.34-5.52.26-5.62.35s.19-1.63.44-1.51.32-.24.26-.44.3-.23.42-.19.08.56,0,.68a1.91,1.91,0,0,0,1.69.15,2.33,2.33,0,0,0,.7-1.53c0-.25,2.83-1.4,3.88-1.68a3.69,3.69,0,0,1,2.08-.07,4,4,0,0,1-1.39,1.5,5,5,0,0,0-1,.34c-.08.05,1.37-.07,2.09-.07a14.38,14.38,0,0,0,2.83-.81c.85.09,1.54,1.46,1.54,1.85a1,1,0,0,0,.61.93,20.11,20.11,0,0,0,1.27-1.69c0-.11-.48.25-.65.41s-.42-.12-.54-.64l-.07-.51c0-.21.65-.48.73-.6s.37.13.45.25.52-.58.69-.93.16,1.55,0,2,.45,1,.53.86a2.91,2.91,0,0,0,0-1.07c0-.23,1.16-1.14,1.59-1.19a13.35,13.35,0,0,0,3-1.25A13.8,13.8,0,0,1,526-103a1.63,1.63,0,0,0,.39-.83c0-.16.43.28.57.49s.67-.16.82-.36.4.48.44.76-1.84,1.58-1.84,1.63a4,4,0,0,0,1.05.1c.3,0,.09.94-.07,1.27s.07.69.51.78c0,0,.68-.75,1-.81l2.74-.61c.06,0,1.09-.4,1.54-.6a9,9,0,0,1,1.33-.57c.18,0,.33.56.6.06.14-.27,1.1.68,1.18.49.45-1,1-.37,1.44-.59l.57-.26c.64-.37,1.41-.44,1.71-.15l.27-.27.79-.78a5.69,5.69,0,0,1,2.67.08l.38-.51.5-.67a11.62,11.62,0,0,0,1.9-.45,2.47,2.47,0,0,0,1.14-.47l.34-.09a5,5,0,0,1,1.09,0c.06,0,.12-.16.18-.21.39-.33.82-1.14,1.15-.87s.82-.45,1.25-.16l.26.18c.31-.19,1.11-1,1.3-.94s.44.87.46,1,.28,0,.36-.15.25.51.29.77.72.18,1,.06.48.31.47.48-.52.3-1.15.26l-.51.36c-.7.5-1.39,1.15-2.13,1-.29-.06-.68-.33-.85.07l-.45,1.08a9.19,9.19,0,0,0-2.4.61l-.71.09a3,3,0,0,0-1.63.7c-.47.43-.9.24-1.34.45s-.88.42-1.32.59l-.38.15c-.4.25-1.37,1-2.15,1.55H539c-1.15.41-2.75.82-3,1A16.56,16.56,0,0,0,534.34-96l-.79-.45a5.27,5.27,0,0,1-1.24.11l-.36.67c-.45.86-1.58.57-1.58.57-.26,0-.48.65-.48.82s-1.51,0-1.51,0,.2.15.44.22l.22,0a1.6,1.6,0,0,1,.73.34c0,.09.43-.51.81-.72a8.52,8.52,0,0,0,2.28-.34c.73-1.31,1.54-1,2.34-1.09.23,0,.92-.13,1,0s-.23,1.46-.4,1.25-1.9.54-2,.8-.75.2-1,.08a6.65,6.65,0,0,0-2.55.53l-1,.9-.12.1c-.17-.37-.64,0-.79-.09l-.6-.17a11.93,11.93,0,0,0-1.6,1.33l-2-.19a8.78,8.78,0,0,1-1.6,1.38s-3.34.66-3.43.76c-.79.85-4.48,1.53-5.51,1.73,0,0-.08,0-.1,0l-.66,1.23c-.81-.28-1-1.85-.83-2.29s.51-.61.61-.53.93-1,.92-1.08a14,14,0,0,0-2.62.63c-.05.1-.5-.08-.63-.16s-2.13,1-2.49.94l-.93-.24c-.95.52-1.34,4.16-1.53,4a4.3,4.3,0,0,1-.62-1.31c-.06-.25-.39.9-.48,1.22s-.49.06-.59-.09-.48-2.61-.69-2.23a1.49,1.49,0,0,0,0,1.13,8,8,0,0,1-.34,1.73A10,10,0,0,0,503-82c.07.44-1,0-1.38.17s-1.41,1.88-1.72,1.79-1.49-1.1-1.83-.75a7,7,0,0,1-2.3,1c-.47.07-2.94.78-3.74.8s-2.89.1-3.42.08a3,3,0,0,0-1.9.63c-.23.36.44.66.74.66a.31.31,0,0,1,.29.38s-2.79.09-3.83.08a7.51,7.51,0,0,1-2.4-.28c-.14-.15-.36,0-.49.26h-.11c-.24,0-.49.22-.72-.34-.07-.18-.34.38-.52.34s-3-1-3.5-.38l-.07.08c0,.15-.25,0-.31-.08a9.91,9.91,0,0,0-2.95-.14c-.46.07-.95.37-1.3,1.46l0,.11c0-.09-.21-.43-.28-.5s0-.62.06-.79-.63-.3-1.5-.3c0,0-.86.93-.87,1.24s-.2.21-.27.1-.44.24-.57.42.08.77.21,1-.54.28-.7-.17-.62-.19-.54-.11a1.9,1.9,0,0,1,.13.67,4.55,4.55,0,0,1-2.18.22,59.28,59.28,0,0,1-6.1-.39l-.15,0c-.15-.32-2,.57-2.64.19s-2.36-.64-2.85,0-2.1.66-2.1.66a2.91,2.91,0,0,1-1.77-.41,61.53,61.53,0,0,0-7.11-.94,12.62,12.62,0,0,0-2.67.29c-.19.18-1-.62-1.22-.73s-1.71-.1-2.32-.19c-.33,0-.69-.66-1-.45a4.81,4.81,0,0,1-2.15.51c-.13.25-4.09-.41-4.52-.33a1.14,1.14,0,0,1-1-.57c-.09-.24-.39-.19-.66.11l-.25-.13c-.35-.2-.69.76-1,.19-.59-1.25-1.21.19-1.8-.33l0,0c-.06.23-.68.13-.73,0s-.6.7-.61.43a2.27,2.27,0,0,0-1-1c-.24-.08-.83,1.07-1,1.27a1.51,1.51,0,0,1-.67.38,6.67,6.67,0,0,0,.17,1.57c.08.35.36.47.63.26h.22c.65,0,4,1,4.63.85l2.24-1.13c.86.65,5.32,1.14,5.28,1.43s5.95.23,6,.09,1,1.3,1.58,1.36c0,0,4.83-.75,5.64,0,0,0,8.09.42,9.28.41,0,0,8.41.15,8.87.29a14.25,14.25,0,0,1,1.68.62l.73-.85c.35.31,8.2.44,8.3.33s.58-.49.51-.7,2.84,0,2.85-.09a13.64,13.64,0,0,1,2.19.74,14.36,14.36,0,0,0,3.08-1l0,0a2.87,2.87,0,0,0-.13-.87c0-.16-.59-.29-1.19-.29h-.55c-.32,0-.75-.35-1,.09l-.37.78a1,1,0,0,0-1.44-.28l-.44,0a21.81,21.81,0,0,1-3.17-.59l-.09,0c-.09-.29-.36-.17-.6.27l-.3-.44c-.14-.22-.33-.41-.48-.36-.42.12-.89.79-1.24.47a4.21,4.21,0,0,0-1.91-.51c-.48,0-1-1.37-1.08-1.81s.28-1.61.47-1.54.81,2.16,1,2.17a41.14,41.14,0,0,0,4.8-.19c.06-.17,1.16.18,1.21.41s1.43-.76,1.78-.74.5.55.47.66.45.61.55.16.24-.36.26-.19.95.6,1.29.72.66-.56.67-.83,1.13-.94,1.53-1a1.62,1.62,0,0,1,1.11.33h.2c.94,0,1.88,0,2.82,0a1,1,0,0,0,.54-.06l.67-.38c.45.24.94.16,1,.06a3.48,3.48,0,0,1,1.34-.42l.63.16a8.44,8.44,0,0,0,2.07,0h.67c.82,0,1,1,.8,1.27s-1.11.2-1.45.1a.88.88,0,0,0-.92.26l-.16.17L493-74a.5.5,0,0,0-.23.32,2.85,2.85,0,0,0,.85.21c.24,0,.43.94.43,1.19a1.44,1.44,0,0,0,.25.67,6.29,6.29,0,0,1,0,1.21c0,.3,1.23.12,1.66-.13a1.2,1.2,0,0,1,1.12,0c.1.11.18-1.16.18-1.61a16.75,16.75,0,0,0-.6-2.06,4.29,4.29,0,0,1,0-1.41c.05-.13,1.87,0,1.93.32.24,1.19,3.67.66,3.67.66.38.2,1.35-1,1.82-.87a10.7,10.7,0,0,1,1.45.48l.14-.35.47-1.11c.43.66,1,.92,1,.8s.14.32.14.47a1.82,1.82,0,0,1-.29.67,5.77,5.77,0,0,0,0,1.42c0,.31-.44,1.18-.63,1.19s0,.42.5.91a7.88,7.88,0,0,0,1.82-.57s1.88,0,2-.36c.28-.7.52.3.6.13.25-.57.4-.56.63.05l.09.25c.26-.07.45-1.13.44-1.46s-.54-.59-.7-.59-.44-.88-.5-1.23,1.09,0,1.53.23.83-.49,1-.49.23.73.23,1-.69.74-1,.8.11.59.82,1.19c0,0,1.84-1.23,2.48-.78l.53.38a7.85,7.85,0,0,1,2.12-.78,19.11,19.11,0,0,1,2.32-.82c.65-.1,5.67-1.13,5.67-1.13a.73.73,0,0,0,1-.37l.25.84c.08.25,3.86-1.28,3.9-1.15a2.89,2.89,0,0,1,0,.87.3.3,0,0,0,.21.32,4.07,4.07,0,0,0,.22-.86c.05-.26.65-.24.87-.16s.73-1,.85-1.14a3,3,0,0,1,2,.52l.14-.23c.4-.68.83-.31,1.22-.59s.63-.26.94-.47,2.75-.5,3.45-1c.3-.19.51.76.73.26.38-.86.81-.44,1.22-.58s1.84-.76,1.84-.76c.56-.24,1.84-.9,2.83-1.46l.93.4c.29.13.68.34.85-.06.44-1,1,0,1.33-.63.45-.86.91-.57,1.34-.42.75.26,1.45-.42,2.19-.39s2.92-1.6,2.92-1.6c.77-.58,1.49-.43,1.52-.23s.28-.23.36-.44.28-.08.34.07.28-.45.33-.68.8.4,1,.13l.69-1.08a2.55,2.55,0,0,1,1.39,1.39c0,.2-.81.74-.8.79a2.62,2.62,0,0,0,.78.1c.21,0,.6-.51.69-.69s.93.29,1,.17-.24-.51-.35-.62.91-.39,1.3-.57.46,0,.33.18.22.36.33.38.27-.61.28-.76,1.18-.19,1.25,0,4-2.86,4-2.86c1-.26,1.69-.17,1.44.21a3.82,3.82,0,0,0-1.19,2.06c-.07.68-.26-.12-.3-.2s-1.29,1.24-1.36,1.11-.5.32-.63.51-.67-.17-.83,0l-.34.27c-.25,1-2.6,1.34-2.33,2.3a1,1,0,0,1,0,.4c0,.06-.36-.46-.48-.69s-1.64-.09-2.17,0a1.64,1.64,0,0,1-1.28-.43c-.06-.12-.41.57-.44,1s2.41.71,2.3.75-.72.71-1.22.3l-.79.88c-.48,0-6.12,2.35-6.14,2.37s-.4.49-.84,1.06a26,26,0,0,0-3.62,1.42c-.59.43-2.23,1.58-2.23,1.58-.54.06-1.58-.43-1.81-.22a13.75,13.75,0,0,1-1.84,1c-.51.23-2.83,2-3.54,1.81-.36-.08-.82-.4-1.07.06l-.57,1a6.1,6.1,0,0,0-2.37,0l-.6.1h-.1a2.76,2.76,0,0,0-.47.85c-.08.21-.91.41-1.84.45l-.83,1-.42.54a2.68,2.68,0,0,0-1.25.93c-.07.2-.78.32-1.58.25l-.74.66-.66.6a12.69,12.69,0,0,0-2.8.61c-.39,0-1.68.28-2.87.55,0,0-.09,0-1.22.13h-.06a6.4,6.4,0,0,0-.15,1.27c0,.27-.45.24-1-.06l-.47,0-.53,0a2.62,2.62,0,0,1-2-.4l-.52.32c-.14.09-.33-.15-.43,0-.45.9-1,.6-1.43.53l-.57-.07c-.5.65-1,1-1.19.66l0,.08c-.41.78-.87.56-1.33.57-.79,0-1.59,0-2.39,0l-.23,0c-.2.26-.61.2-.91-.14l-.2.14a21.21,21.21,0,0,0-1.73,1.51l-.4.35a.62.62,0,0,0-1.06.06c-.06.25-1-.81-1.35-.39a9.78,9.78,0,0,0-.82,1.61c-.06.16-.4,0-.51,0s-.17.55-.16.73.54.32.69.32a8.16,8.16,0,0,1,1.25.83c.2.15.41-.14.42-.26a9.39,9.39,0,0,1,.92-1.23c.24-.27,1.28,0,1.6-.52s.69-.25.72-.06.81.53,1.05.59.46-.24.49-.68l0-.23.07-.34c.1-.3,1.37.8,1.69.59a1.36,1.36,0,0,1,1,0c.1.07,1-.71,1.36-.61a12,12,0,0,1,1.2.48l.14-.35c.36-.91.77-.66,1.12-.47l.4.21a7.88,7.88,0,0,0,1.23-1.22c.15-.21.48-.14.75.13l.22.2.23.2a6.8,6.8,0,0,0,.89-.7l.24-.11.26-.13c.24-.19.67-.06,1,.29l.12-.2.58-.91a9.15,9.15,0,0,0,2.13.29c.25,0,2.36-1.54,3.1-1.59s2.24-.51,2.59-.54,2.16-.52,2.74-.63a3.52,3.52,0,0,1,1.54,0l.23-.55c.12-.26.34.16.56-.14l.18-.25a4.3,4.3,0,0,0,2.19,1l.87-1.65c.32.12-.74,3.68-.72,3.76a4.55,4.55,0,0,1-.47,1.64L538.2-60c-.32-.47-.7-.58-.91-.26l-.55.86a1.83,1.83,0,0,0-1.72.88l-.3-.07a4.16,4.16,0,0,0-2.67.22,6.92,6.92,0,0,0-2.38,2.24c-.06.25-.74.46-1,.46s-.1-.45,0-.56-.35-.86-1-1.68l-.5.68c-.4.55-.76.59-1.12.44s-.79.78-1.22.65l-.21-.06a26.84,26.84,0,0,0-3.72.77,3.24,3.24,0,0,0-.23.85c0,.16-.35.43-.75.61l-.33-.73-.25-.55a1.73,1.73,0,0,1-1.22.11l-.31.2a14.52,14.52,0,0,1-2.08.62l-.34.11c-.36.26-.87.05-1.13-.46a5.07,5.07,0,0,1-1.55.34c-.44-.08-.81,1.17-1.3.46s-1.93-.87-2.08,0c0,.1-.14.18-.19.11l-.27-.41c-.32,0-5.59,1-6,1s-.87,0-1.3,0l-.41,0c-.43.25-2.37.76-2.46.51-.38-1-.83-.34-1.23-.57l-.07,0a3.63,3.63,0,0,1-.18-.81c0-.21-.51-.38-.71-.38s-.33-.67-.32-.89.26-.13.3-.09a4.75,4.75,0,0,0,1-.23c.23-.08.22-.68.18-.78s-.51.13-1.07.5l-.46-.56c-.45-.56-1-.62-1.35-.22-.53.59-1,.42-1.56.48s-1.3,0-1.95,0h-.06a4.42,4.42,0,0,0-.1.76c0,.14.31.44.44.51s.2.58.2.68-.44.68-.57.41-.52-.18-.88.2l-.18-.28c-.45-.74-.83-.76-1.27,0-.11.18-.34.27-.41.09l-.42-1.09a.85.85,0,0,1-1.09-.35c0-.2-.26.55-.33.87s-.34.21-.4.11-.29.14-.33.21-.44-.2-.89-.58l-.25.34c-.58.78-1.21.74-1.78,1.27l-.54.5a11.1,11.1,0,0,0-1.51-.07l-.26-.26-.32-.32c-.39,0-1.34.64-1.57.64s-.51.66-.54.86-.24-.58-.31-.92-1-.24-1.3-.18a4.92,4.92,0,0,1-1.83-.26l-.62-.11-.22,0c-.26.31-1.67-.43-2.12-.28a2.69,2.69,0,0,0-1.08,1,2,2,0,0,0,.15.79,4.63,4.63,0,0,0,1.37.78.8.8,0,0,0,.82-.24c.05-.11.58.93.83.82s.43.24.42.41-.71.47-1,.33a9.05,9.05,0,0,0-1.59-.51h-1.07a3.38,3.38,0,0,1-2.2-.44c-.34-.25.14-1.24.39-1.5s.69.26.79.59.37.22.42.11a6.8,6.8,0,0,0-.1-1.26c-.05-.25-1.29-.46-1.74-.46s-1,1.18-1.07,1.59-.24.42-.29.29-.27.51-.49,1.43l-.23.76,0,.12c-.24-.22-.12-1.39,0-1.66a17.22,17.22,0,0,0,.15-2.36c0-.55-.27-.7-.36-.6a51.52,51.52,0,0,1-6.33-.15s-1.46.08-1.95-.63l-.24-.35c-.43.42-1.12,0-1.3.14s-.71.71-.85.71h-5.67a9.4,9.4,0,0,1-1.6-.38c-.06-.12-.11.74-.11,1.08s.17.18.22.05.29.43.37.7a.9.9,0,0,0,.63.5c.12,0,.27.56.28.74s.56.32.76.32.87,0,1.08.06,0,1.87-.26,2.09-1.58,0-2-.14a2.33,2.33,0,0,1-1-.77,7.12,7.12,0,0,1,0-1.26c0-.28-.49-.51-.66-.51s-.51.57-.58.76-1.09.05-1.56-.25l-.46-.3c-.5-.47-1.49-.07-1.75-.22s-.3-1.12-.26-1.39-.31-.62-.45-.45c-.57.65-3.56-.08-3.68.1s.32.49.5.54.17.91.13,1.12a1.63,1.63,0,0,0,.45.87c.13.13.75,0,.9-.07a3.25,3.25,0,0,1,1.33.28l.51.15h.06a2.71,2.71,0,0,1,.1.86c0,.17-.25.29-.54.25l-.24.09-.27.1c-.21.18-1.47,0-1.84.14s-1.64-.76-2-.62-.47.73-.18,1.31l.24.38.24.39c.17,1-.6,1.87-.89,1.7s-1.4-.66-2.46-1.09l-.92,1.26-.09.12a4.48,4.48,0,0,0-1.19-.15l-.34-.64-.46-.89c-.48.22-1.18.52-1.55.67l-.17-.39c-.37-.84-.61-.47-.94,0l-.11.17a2,2,0,0,1-.06-1.52l.18-.23.18-.23c.23-.06.12-.67-.18-.35l-.12-.25c-.36-.78-.75-.47-1.12-.53l-.29-.05a4.33,4.33,0,0,1-1.6-.54l-1,.56-.21.11c-.24-.08-1.67-.7-1.91-.53a7.2,7.2,0,0,1-.85.52l-.08-.23c-.21-.67-.47-.44-.7-.45-1.34,0-2.69,0-4,0,0,0-3.44-.44-4-.62s-1.1-.41-1.65-.59h-.05a8.85,8.85,0,0,1-1.64-.25,13.34,13.34,0,0,0-2.65-.22c-.69,0-1.5-.11-1.49-.33s-.5-.22-1.12,0l-.42-.52c-.54-.66-1.05-.22-1.56-.52l-.91-.54c-1-.35-2.42-1.65-2.67-1.58s-1-.45-1.72-1.15l-1,1.2c-.32.15-.66-.38-.69-.57s-.48-.15-1,.09l-.31-.54c-.51-.85-1.1-.09-1.46-.49a3.88,3.88,0,0,0-2.38-.65c-.25,0-.93-.64-1.07-.83s-1.42.7-1.81.11-.84-.4-.88-.13-.41-.18-.5-.38a8.08,8.08,0,0,0-2-1c-.5-.16-6.79-.85-6.76-1.21s-.36-1.43-.53-1.2-.38.17-.46-.14l-.78,0c-.76-.3-3-.9-3.57-1a8.36,8.36,0,0,1-1.49-.52c-.23-.12-1.18-.27-1.4-.35s-.7-.72-1.11-.59c-.18,0-.37-.48-.56-.53s-.44.38-.62.22l-1-.89a28.11,28.11,0,0,0-3.55-.8,4.89,4.89,0,0,1-2.09-.46l-4-1.43a2.74,2.74,0,0,0-1.79,1.19c0,.23-.68.1-1.43-.3l-1.42.13a11.35,11.35,0,0,1-3.36-.14c-1.19-.34-7-.59-7.12-.61s-1.57-1-2.08-.78-1.68.7-2.61,1.13c0,0-1.33-1.13-1.5-.87-.5.79-1,.47-1.55.58-.16,0-1.94,1.33-2.67,1.77l0,0a1.76,1.76,0,0,1,0-.73,2.49,2.49,0,0,0-.15-.81c-.06-.16-1,.15-1,.15a2.46,2.46,0,0,1-1.79-.65c-.09-.24-1.36,0-1.84.07a1.72,1.72,0,0,1-1-.17,1.7,1.7,0,0,0-.85.09s-.92,1.3-1.23,1.36a6,6,0,0,0-1.32.82,1.69,1.69,0,0,0-1.27.27l-.34-.12a12.22,12.22,0,0,0-2.38.38,1.86,1.86,0,0,1-1.18.09,9.28,9.28,0,0,0-2.43.27s-.17,0-1.33-1c-.37-.32-.8-.12-1.19,0s-2.42-.68-2.56-.6-.45-.09-.47-.28-2.07-.34-2.07-.34a3.54,3.54,0,0,0-1.67.93c-.18.22-.34-.26-.35-.4a2.18,2.18,0,0,1,.39-.8c.14-.18-.55-.33-.71-.33a7.42,7.42,0,0,1-1.06-1.75c-.16-.37-1-.51-1.29-.37s-.64-.82-.24-1.17-.07-1.25-.34-.92-.78-3.88-.63-4.43,1.33-.77,1.59-1c1.61-1.69-.82-4.66,1.21-5.63,1.55-.74-2.47-4.69-.41-6.63S303.09-94.17,301.09-94.2Zm155.55,10c-.27,0-1.27-.27-1.56-.24a13.07,13.07,0,0,1-1.53,0h-6.93c-.54,0-3.73-.37-3.8-.23s-1-.15-1.39-.3-.73.31-.74.44a2.29,2.29,0,0,0,.08.67h0l1,0a11.71,11.71,0,0,0,2.92-.29l.45.81.19.34c.46-.4.88-.66.95-.52s.57-.29,1.09-1l.56,1.15c.19.39.59-.14.85.12s.36-1.26.62-.2c0,.12.34-.34.53-.44l.14-.08,1.68.46.7.22.37.11c.42.22.85.18.89.07a6.67,6.67,0,0,1,1.85-.72l.88.53.19.11c.25.15.66-.13.76-.34s.24-.08.27,0,.09.07.1,0a1.18,1.18,0,0,0-.1-.35c0-.07-.08-.08-.09-.06s0-.3,0-.41.21-.21.29-.21,1.12.41,2.3.9a16,16,0,0,0,3.48.92c.34,0,.71-.37,1,.53.07.21.36.07.49-.16.28-.49.47-.27.76,0a.89.89,0,0,0,1.23-.09l.41-.39a1,1,0,0,0,1.24.15h.3c1.38-.05,2.76,0,4.13,0h.3c.37-.24,1.81.53,2.28,0s1-.74,1.27-.5l.24-.27c.46-.52.84-.73,1.28.12l.14.26a1.69,1.69,0,0,1,1.42-.07c.27.14.72-.29.86-.59s.28-.44.32-.33.29-.37.36-.55.46-.11.86.18l.32-.07.88-.17a8.53,8.53,0,0,1,2.79-.05l.53-.28c.52-.28,1.08,0,1.63-.06.27,0,.54.11.8-.54l.1-.26c.38.34,2-.65,2.65-.56a8.88,8.88,0,0,0,3.21-.08c.58-.31,1.41.38,1.62.08s.95-1.25,1.18-1.18a3.22,3.22,0,0,0,1.25-.16.46.46,0,0,1,.56.14c.06.14-.11-1.15-.46-1.31l-.32.65c-.12.24-.41-.82-.68.1-.09.3-.41.11-.62.11a5.93,5.93,0,0,1-1.63,0,4.22,4.22,0,0,0-2.32-.06,24.21,24.21,0,0,1-4.64,1.3,6.68,6.68,0,0,0-1.71.19,3.58,3.58,0,0,1-1.15-.06,3.7,3.7,0,0,0-1.37.13l-1.31.67-.47-.25-.41-.22c-.52.43-1,.2-1,0s-.46-.44-1-.44h-.46a6.14,6.14,0,0,0-1.42,0l-.47.1c-.52.23-1.45-.8-1.69-.52s-1.05.08-1.35.19-.77,2-1,2.2a12.74,12.74,0,0,1-1.38.77l-.45-.79-.18-.32a6,6,0,0,1-1.49.78l-.42,0c-1.16,0-2.32,0-3.48,0h-.12c-.09.23-.61.4-1.16.37l-.36-.55c-.45-.67-.75-.28-1.16.07l-.33.27c-.49-.3-1.41.51-1.7.8s-.59-.24-.61-.39a3.35,3.35,0,0,0-2.11-.48,1,1,0,0,1-1.2-.46c0-.25-.28.41-.36.71s-.14-1-.18-1.18a1.42,1.42,0,0,1,.07-.61.5.5,0,0,0,0-.27s-.09.17-.12.26a.58.58,0,0,0,0,.25s0,.19-.09.38A3,3,0,0,1,456.64-84.21ZM431-55.33l-.18-.22c-.35-.42-.63.67-1,.11s-.85-.1-1.29-.1h-.39a3.13,3.13,0,0,1-1.45-.38l-.26.9a.18.18,0,0,1-.3.07,4.46,4.46,0,0,0-3.74-1.6,13.58,13.58,0,0,0-2.45.58c-.08.1.6.59.88.74a5.3,5.3,0,0,0,2.21-.05l.82.93c.37.42.7-.57,1.14-.07s.85.07,1.29.09h.43c.47.22,1.2.57,1.61.78l.4-.15a2.42,2.42,0,0,1,1.41,0c.3.07.59.45.89.56l.29.1c.28-.05,1.72.59,2.22.28l.76-.67c.33.2,1.25.6,1.61.39s1.35.6,1.35.6c.41,0,.77-1.07.7-1.28l-.05,0c-1.22.44-1.46.33-1.46.33-1.18-.52-2.73-1.19-3.45-1.47l-.67-.11-.22,0c-.24-.31-.48-.47-.52-.35S431.28-55.2,431-55.33ZM498.9-55c.23,0,.59-.48.65-.68s.52-.27,1-.15l.41.33.41.33a2.94,2.94,0,0,0,1-1c.08-.2-.76-.78-1.06-.9a1.94,1.94,0,0,0-1.28,0c-.21.15-.77.47-1,.29a.54.54,0,0,0-.72,0,1.22,1.22,0,0,0-.23.55C498.12-56.08,498.67-55,498.9-55Zm-52.85.34c-.39,0-.74.4-.78.93l-.06.31,0,.23a.48.48,0,0,0,.43.67l.28-.06c.21-.05.42-.35.63-.32l.27,0c.34.26.62.19.62-.15S446.43-54.6,446.05-54.62Zm92.67-5.7a3.38,3.38,0,0,0,0-.41.34.34,0,0,0,0-.2.54.54,0,0,0,0,.2A1.59,1.59,0,0,0,538.72-60.32Z" transform="translate(-292.81 127.98)" />
		<path class="cls-1" d="M508.43-102.9c-.08-.38-1.77.93-1.78.89a11.92,11.92,0,0,0-2.41.41,6.92,6.92,0,0,0-2,.92c-.21.27-.66.74-.65.94s.68.38,1,.38,0,.82-.19,1.15c-.25.53-.34-.93-.63-.28-.13.31-1.09.84-.55,1s-2.34,1.91-2.34,1.91c-.91-.38-.34-2-.34-2.14a9.25,9.25,0,0,0-3.07-1.09h-.75a10.11,10.11,0,0,0-.1,1.12c0,.26-.63.58-1.37.71,0,0-1.65,1.36-2.13,1.07s-2.21.19-2.21.19a8.36,8.36,0,0,0-2.43.77c-.07.19-2.19-.26-2.15-.14s-.5.71-.73.89-.62-.63-.7-1-1.71,1.1-1.93,1.07,0-.57,0-.68a11.2,11.2,0,0,0-.09-2.36c-.09-.55.32-.47.51-.57s.17-.94.2-1l0,0,.28-.43c.3.31.91.87,1.05.74a6.84,6.84,0,0,0,.67-.83l.48,1.14c.3.22,1.36-.83,1.38-1.07s.29.67.37,1,.85-.55.95-.53-.05,1.17-.06,1.15.83,1,1.17.85,0-1.36,0-1.85a3.52,3.52,0,0,0,1.35-2l0-.09a2.8,2.8,0,0,1,.34.93c0,.24.64,0,.85,0s.41.43.42.58.51.28.69.28.61-.85.71-1.14,2-.17,2.06-.07.22-.81.23-1.08a2.66,2.66,0,0,1,.43-1c.1-.12.37.66.44,1s.23.53.28.52a6.3,6.3,0,0,0,.16-1.22c0-.36.86-.79,1.86-.93l3.17-.45c.5.4,1.06.6,1.24.44,0,0,.69.58,1.07-.13.25-.46.72-.26,1.06,0s1.13-.37,1.18-.4c.71-.41,1.41-1.12,2.16-.86.28.09.9.1.94.21S508.51-102.51,508.43-102.9Zm-13.17,2s-.16-.2-.23-.25-.13.18-.13.27,0,.17.11.17S495.26-100.86,495.26-100.92Zm1.46.3a3.31,3.31,0,0,0,0-.4c0-.11,0-.2-.05-.2a.54.54,0,0,0,0,.2A1.56,1.56,0,0,0,496.72-100.62Zm-15.57,3.94s.1.06.14.06.07-.09.07-.13a.07.07,0,0,0-.07-.07A.24.24,0,0,0,481.15-96.68Z" transform="translate(-292.81 127.98)" />
		<path class="cls-1" d="M527.24-110.84l.3-.18a9.42,9.42,0,0,1,2.76-.67l3-.35c.11,0,.23.05.33,0l.26-.17c.28-.22,1,.69,1.16,1.15s1.1.95,1.39.45.68-.51.74-.37.72-.44,1-.3a5.75,5.75,0,0,0,2.07-.32c.43-.15.89,0,1,.14s-.44.76-1.15,1.34l-.63-.1c-.11,0-.25-.13-.32,0l-.59,1.11a4.48,4.48,0,0,0-2.59,0l-.67,0-.65.05c-.71,0-2.24.59-2.59.58s-.83-.6-.88-.74-.32-.13-.61,0l-.23.11c-.48.22-1,0-1.46.33l-1,.66c-1.16.48-3.33.89-3.79,1.08s-1.09,1.18-1.23,1a.84.84,0,0,0-.87-.11l-.32,0a3.62,3.62,0,0,0-.87,0c-.3.11-.59.49-.89.56s-.87,0-1.3,0l-.44.07a10.19,10.19,0,0,1-1.62.6l-.39-.05c-.35,0-.8.67-1.06.29l-.63-.94c-.42.88-.95,1.45-1.18,1.26l-.13.1c-.43.28-.84,1-1.26,1l-1,.07a6.45,6.45,0,0,1-2-.82c0-.11,1-.48,1.36-.88s1.24,0,1.48-.18,2.23-1.87,3-2,2.13-.41,2.46-.42a17.2,17.2,0,0,0,2.76-.64s0,0,1.06-1l.12-.12m13.81-1.12a1.83,1.83,0,0,0,0,.4.36.36,0,0,0,0,.21.58.58,0,0,0,0-.21A2.48,2.48,0,0,0,534.78-110.24Z" transform="translate(-292.81 127.98)" />
		<path class="cls-1" d="M566.6-70.54l-.22.18c-.25.24-.55.2-.57.15s-.27.1-.57.32L565-70l-1-.39a9,9,0,0,0-2.26,1.47h-.12a6.73,6.73,0,0,0-2.07.72c-.16.06-.33-.2-.49-.32l-.41-.28a1.68,1.68,0,0,1-1.14.18c-.1-.07-1.51,1-2,1.19a19.85,19.85,0,0,0-2.58,1.58l-.81.63-.79.62-2.09.8-.24.26-.49.54c-.63.19-1.32-1-1.38-1.35s-1.33-.36-1.8-.23a1.24,1.24,0,0,0-.75,1c0,.2.32,0,.42-.14s.15.44.14.67-.53.16-.7.07-.38.27-.39.4a6.79,6.79,0,0,1-1.29,1c-.33.2-.59-.39-.59-.65s.42-.58.56-.62,0-.52-.31-1.08h-.57c-.34.1-.49-.49-.43-.77s.53-.33,1-.12l.34-.47c.43-.58.83-.36,1.24-.51a12.62,12.62,0,0,1,1.32-.58c.91-.24,1.82.17,2.75-.5a4.81,4.81,0,0,1,1.75-.69l.59-.14a8.5,8.5,0,0,1,2.64-.32l.73-.73a1.15,1.15,0,0,1,1.14-.31c.38.09.71-.41,1.08-.38s.75.25,1.15-.29.84-.2,1.26-.26h.08a21.15,21.15,0,0,0,2-1.17l.95-.12c.22,0,.52.15.74-.3l.29-.58a8.73,8.73,0,0,0,2-1.49l.74.08h0a3.43,3.43,0,0,1,.11.71,2,2,0,0,1-.31.62c-.09.12,1,1,1.38,1.11s.59.29.35.42Z" transform="translate(-292.81 127.98)" />
		<path class="cls-1" d="M463.19-93.7c.36.49.83.81,1,.72s.89-3.28.6-3.28-1.07.11-1.12.24A6.9,6.9,0,0,1,462-94.93a6.75,6.75,0,0,0-.86-1.76s-1.3.41-1.4.8-1.25-.18-1.21.08-11.74,1-11.74,1a17.73,17.73,0,0,1-2.21-.07s.62-1,1-1c0,0,1.62.61,1.79.63s.61-.1.62-.27a2.11,2.11,0,0,0-.15-.8,1.63,1.63,0,0,0-1.35-.2s-2.62-.37-3-.47l-.31-.08c-.29.56-.37,1.14-.18,1.28s.5,1,.24,1.33-1,.12-1,.69,2.4.86,2.63.94,1.81-.68,1.81-.68,1.19.3,2.32.52c0,0,7.49.06,7.69.19.42.26.79-.48,1.25-.08s4.47.1,4.76.13Z" transform="translate(-292.81 127.98)" />
		<path class="cls-1" d="M475.45-106.25c0-.1.5.18.6,0s.79.13.85,0,4.65-1.22,4.7-1.34a2.78,2.78,0,0,0,.1-.83l-.05,0c-.44-.18-.92.42-1.32-.6,0-.1-3.05,1.24-3.05,1.24-.6-.32-1.22-.49-1.37-.37a2.4,2.4,0,0,1-1.41,0c-.47-.16-1.93.81-2.23.88a8.73,8.73,0,0,1-2.83,0c-.59-.24-2.48-1-2.78,0-.05.2-.31.19-.41,0-.67-1.17-1.45-.86-2.08-.43l-.75.52a18.35,18.35,0,0,0-2.77-.32c-.38.14-1.57.35-1.75.64s-.77-1.14-1.08-1.36c0,0-1.11.08-1.41.46a4.67,4.67,0,0,1-1.47.75c-.73-.13-1.64-.3-1.79-.3-.41,0-.83.35-1.25-.37l-.23-.4a1.43,1.43,0,0,0-.76.49c-.05.15-.2.77-.13.81s.5.74.92.74a3.62,3.62,0,0,1,1.59.05c.36.23.65-1,1-.17.06.15.38-.47.42-.34l.28.83c.35-.22,8.16-.56,8.72.12l.31.37a1.29,1.29,0,0,1,1.77,0s2.32-.25,2.69-.77S475.41-106.15,475.45-106.25Z" transform="translate(-292.81 127.98)" />
		<path class="cls-1" d="M557.53-112.58c-.15.17-.74,0-1.31-.36l-.27.4c-.39.56-.75.46-1.13.49a1.72,1.72,0,0,0-1.32.57c-.41.44-.93-.52-1.32.63,0,.1-.14,0-.21,0l-1,.2c-1.12.25-2.63.53-3.35.62a9.69,9.69,0,0,0-2.88,2c-.19.22-.77,1.11-.66,1.24s.82-.3,1.29-1.29l.62,1.43c.08.16.27,0,.41-.14l.26-.17a2,2,0,0,0,.65-.81c0-.18.31-.92.36-.45a9,9,0,0,0,.29,1.6,2.44,2.44,0,0,0,.39.37l0-.06c.25-.28.58-1,.72-.75.27.41.4-.16.59-.15a5.82,5.82,0,0,0,1.76,0,7.09,7.09,0,0,1,2.52-.42c.2.11.87-.75,1.17-.78h.27l.5,0c.35-1,.8-1.82,1-1.82s.84-.31.93-.69S557.68-112.75,557.53-112.58Z" transform="translate(-292.81 127.98)" />
		<path class="cls-1" d="M463.15-51.57l.64.22.24.08c.29-.24.64,1.11.69,1.76s-.84,1.19-1.19,1.19a.52.52,0,0,0-.5.53c0,.14-.17.27-.26.27s.2-.16.65-.35l.22.35a.74.74,0,0,0,.81.39c1.09,0,2.18,0,3.26,0h.13c.16.09.23.74.21.9a4.53,4.53,0,0,1-2.2.29h-1.43a12.22,12.22,0,0,0-3.47.07,4.5,4.5,0,0,1-1.31.3,15.43,15.43,0,0,1-2.2-.64,28.22,28.22,0,0,0-3-.35c-.83,0-1.22-.81-1.14-1s.8-.34,1.05-.34a.55.55,0,0,0,.46-.2,7.31,7.31,0,0,0-.94-.87c-.27-.22-.19-1.07-.1-1.27a6.34,6.34,0,0,0,0-1.59c0-.33.09-.32.28,0l.06.43.06.38c0,.48.22.77.26.75a6.23,6.23,0,0,0,.14-1.11.71.71,0,0,1,.49-.54,7.86,7.86,0,0,1,.69,1.7,1.27,1.27,0,0,0,.59.76c.1,0,.16.51.15.66s-.3.46-.4.54a.62.62,0,0,0-.17.36,9.9,9.9,0,0,0,2.1.12h1.3c.27,0,1.27,1,1.51.41a.7.7,0,0,0-.38-1,.37.37,0,0,1-.34-.35c0-.1-.16-.32-.23-.38s-.09-.26-.08-.32a2.87,2.87,0,0,1,.92-.12c.24,0,.58-.39.77-.87S462.42-52,463.15-51.57Z" transform="translate(-292.81 127.98)" />
		<path class="cls-1" d="M540.34-108.37a2.67,2.67,0,0,1,.38-.92c.1-.14.37.25.45.45a.73.73,0,0,0,.47.38c.08,0,.21-.5.23-.67a3.19,3.19,0,0,1,.66-.86c.17-.16.47.14.54.32a1.24,1.24,0,0,1-.19.74.83.83,0,0,0-.12.4c0,.07.39.12.53.12a4.7,4.7,0,0,1,.47,1.64.65.65,0,0,1-.53.69c-.14,0-.3-.66-.31-.81s-.5-.28-.67-.28-.89,1.65-1.13,1.49-1,.55-1.79,1.57l-.8-.09-.69-.08c-.74.39-1.44,0-1.46-.26s-.17.29-.21.5-.57.54-1.19.75l-.54.29-.57.3a1.34,1.34,0,0,1-1.19-.57,4.41,4.41,0,0,0-.41,1.13c-.11.38-.48-.26-.57-.57s.39-1.27,1.08-2.13l.68,1.07.17.28a.78.78,0,0,1,.75-.23,4.32,4.32,0,0,0,.7-1.75c.06-.67.33-.22.4.09s.4.1.48,0a4.3,4.3,0,0,0-.2-1.38c-.1-.32-.8-.58-1-.58s-.24-.19,0-.42l.14-.39c.28-.76.41.31.62.18s.39-.37.59-.42.5,0,.76,0l.21,0c.24-.18.43.14.42.35s-.73.37-1,.37-.47.67-.46.88.47,0,.64-.07.56-.12.73.15a4.58,4.58,0,0,1,.4,1.16c0,.16.54-.92.77-.84s.59-.35.66-.55.27.47.32.74.14-.22.15-.41a.67.67,0,0,1,.24-.47A3.34,3.34,0,0,0,540.34-108.37Zm2.17-.41c0-.06-.21-.1-.29-.1s-.14.14-.14.2.06.1.14.1S542.51-108.73,542.51-108.78Z" transform="translate(-292.81 127.98)" />
		<path class="cls-1" d="M467.22-94.63l.28-.07c.42-.3.05-.54-.13-.54s-.36-.5-.36-.63a3.19,3.19,0,0,1,.4-.81c.11-.14.64.09.77.2a5.46,5.46,0,0,1,.51,1.35c.07.31.18.4.25.2L469-95l.12-.16a4.76,4.76,0,0,0,.31-1.46c0-.36.32-.21.4-.09s.25-.06.3-.17.43.29.55.46a4.16,4.16,0,0,1,.25,1.28c0,.23,2.56-.23,2.56-.23s.26-1.8.44-1.71a4.5,4.5,0,0,1,.68,1.46c.08.31.36-.49.43-.81s.77-.57,1-.57.72.81.82,1.15a7.72,7.72,0,0,0,.86,1.19c.14.25-1,1.34-1.51,1.1a5.14,5.14,0,0,0-3,.35,3.61,3.61,0,0,1-2-.18.86.86,0,0,0-.65,0l-.19.09c-.22.28-1.08-.57-1.37-.41s-1.62,1.33-2,.75a5.71,5.71,0,0,1-.67-1.46c0-.11.26-.17.58-.14Z" transform="translate(-292.81 127.98)" />
		<path class="cls-1" d="M486.63-108.57a4.89,4.89,0,0,0,1.52.1l.75,0c.27,0,.57-.33.81.44a.24.24,0,0,0,.4.13c1-1,2-.85,3-1.3,1.14-.52,2.28-.09,3.39-.58l.61-.28c.69-.13,1.25-.4,1.25-.6a2.79,2.79,0,0,0-1.41-1.46l-.66,1.22c-.05.09-.14,0-.22,0l-2.07.29a14.53,14.53,0,0,0-2.54.52c-.2.12-.84-.11-1-.27s-.92.44-1.27.26l-.37.33c-.32.3-.72,0-1.07.09l-.37.14A2.68,2.68,0,0,0,486.63-108.57Z" transform="translate(-292.81 127.98)" />
		<path class="cls-1" d="M499.28-112a1.46,1.46,0,0,0-.43,1.42c.18.32,1.11-.21,1.16-.11a1.67,1.67,0,0,0,1.19-.09,8.77,8.77,0,0,0,2.12-1.08,2.88,2.88,0,0,0-.14-.82l-.05.05c-1.07,1-2.17.47-3.26.57Z" transform="translate(-292.81 127.98)" />
		<path class="cls-1" d="M484.81-107.88c.08-.3.31-.46.51-.35s.8.21.87,0a9,9,0,0,0,.2-1c0-.06-.16-.08-.3.1s-.68.53-.92.38-.86.41-.92.26a.41.41,0,0,0-.68,0c-.25.33-1-.39-1.12-.2a3.44,3.44,0,0,0-.42,1.29l.07.14.27.55a3.43,3.43,0,0,1,1.1-1l.29-.06c.32-.06.65,0,1,0Z" transform="translate(-292.81 127.98)" />
		<path class="cls-1" d="M459.78-83.52c0-.09,0-.17-.12-.17s-.24,0-.25.1a.44.44,0,0,0,.12.27C459.59-83.28,459.77-83.42,459.78-83.52Z" transform="translate(-292.81 127.98)" />
	</g>
</svg>
