<svg id="Слой_2" data-name="Слой 2" xmlns="http://www.w3.org/2000/svg" viewBox="0 0 270.99 264.74">
	<defs>
		<style>
			.cls-1{stroke:#fff;stroke-miterlimit:10;}
		</style>
	</defs>
	<title>
		sound-on
	</title>
	<polygon class="cls-1" points="135.17 252.37 135.19 12.62 60.08 86.79 0.5 86.79 0.5 176.62 60.08 176.87 135.17 252.37" />
	<path class="cls-1" d="M685,440.5v-30s27.74-24.77,0-54v-33c28.69,7.84,68.35,79.51,0,118.44" transform="translate(-519.65 -250.87)" />
	<path class="cls-1" d="M684.82,483.33S747.46,464.69,757.4,403,737,302,685,282v-30.5s67.32,14.83,93.5,77c17.19,42.84,14.82,80.83-3.5,117s-55,61.83-90.16,69.5C685,503.24,684.82,483.33,684.82,483.33Z" transform="translate(-519.65 -250.87)" />
</svg>
