<svg id="Слой_2" data-name="Слой 2" xmlns="http://www.w3.org/2000/svg" viewBox="0 0 270.91 270.92">
	<defs>
		<style>
			.cls-1{stroke:#fff;stroke-miterlimit:10;}
		</style>
	</defs>
	<title>
		sound-off
	</title>
	<path class="cls-1" d="M192.67,181.67h70l-70-70.17,18.83-19L462,343l-18.5,19-31-30.5S394.33,350,357.33,359V327.33s10.88-1.41,34.05-17.58l-64-63.75,0,101.25-75.08-75.5-59.58-.25Z" transform="translate(-191.96 -91.79)" />
	<polygon class="cls-1" points="135.4 15.71 135.37 77.71 105.04 46.71 135.4 15.71" />
	<path class="cls-1" d="M357.5,95.5V126s102,31.5,67.5,140.5l22.5,23s31-55.5,3.5-117S368.5,99,357.5,95.5Z" transform="translate(-191.96 -91.79)" />
	<path class="cls-1" d="M357.5,167.5v33L394,237S403.5,191.5,357.5,167.5Z" transform="translate(-191.96 -91.79)" />
</svg>
