<svg id="Слой_2" data-name="Слой 2" xmlns="http://www.w3.org/2000/svg" viewBox="0 0 56.69 56.69"><path d="M216.54-51.83l-15.23-15.24a22.91 22.91 0 005.14-14.49 23 23 0 00-23-23 23 23 0 00-23 23 23 23 0 0023 23A22.84 22.84 0 00198-63.75l15.21 15.25a2.36 2.36 0 001.64.66 2.37 2.37 0 002.37-2.37 2.31 2.31 0 00-.68-1.62zm-33.11-11.59a18.1 18.1 0 01-18.1-18.11 18.1 18.1 0 0118.1-18.11 18.11 18.11 0 0118.11 18.11 18.11 18.11 0 01-18.11 18.11z" transform="translate(-160.53 104.53)" fill="#ff4b3b"/></svg>