<svg id="Слой_1" data-name="Слой 1" xmlns="http://www.w3.org/2000/svg" viewBox="0 0 40.52 35.05"><defs><style>.cls-1{fill:none;stroke:#363636;stroke-miterlimit:10}</style></defs><path class="cls-1" d="M439.76 305.73v5.74a3.24 3.24 0 01-3.23 3.24h-32a3.24 3.24 0 01-3.23-3.24v-17.81a3.24 3.24 0 013.23-3.24h32a3.24 3.24 0 013.23 3.24v5.07M411 290.42l17.86-9.18a.86.86 0 011.15.37l4.53 8.81" transform="translate(-400.84 -280.15)"/><path class="cls-1" d="M410.84 290.46l11.61-9.61a.85.85 0 011.2.11l1.71 2.07" transform="translate(-400.84 -280.15)"/><path class="cls-1" d="M30.86 18.57h8.35a.8.8 0 01.8.8v5.4a.8.8 0 01-.8.8h-8.35a3.5 3.5 0 01-3.5-3.5 3.5 3.5 0 013.5-3.5z"/><circle class="cls-1" cx="31.25" cy="22.07" r="1.75"/></svg>