<svg version="1.1" id="Слой_1" xmlns="http://www.w3.org/2000/svg" x="0" y="0" viewBox="0 0 923.1 167.8" xml:space="preserve"><style/><path class="st0" d="M49.6 99.2c4.5 4.2 4.6 11.3.4 15.8-.1.1-.2.3-.4.4l-4 4c-4.2 4.5-11.3 4.6-15.8.4-.1-.1-.3-.2-.4-.4l-26-26c-4.4-4.3-4.6-11.3-.3-15.8.1-.1.2-.3.4-.4l4-4c4.2-4.5 11.3-4.6 15.8-.4.1.1.3.2.4.4l25.9 26zm-2.9-49.6c-4.2-4.5-11.3-4.6-15.8-.4-.1.1-.3.2-.4.4l-4 4c-4.5 4.2-4.6 11.3-.4 15.8.1.1.2.3.4.4l26 26c4.2 4.5 11.3 4.6 15.8.4.1-.1.3-.2.4-.4l4-4c4.5-4.2 4.6-11.3.4-15.8-.1-.1-.2-.3-.4-.4l-26-26zm69.2 23.1c-4.2-4.5-11.3-4.6-15.7-.4l-.4.4-4 4c-4.5 4.3-4.6 11.3-.4 15.8.1.1.2.3.4.4l26 25.9c4.2 4.5 11.3 4.6 15.8.4.1-.1.3-.2.4-.4l4-4c4.5-4.3 4.6-11.3.4-15.8-.1-.1-.2-.3-.4-.4l-26.1-25.9zM139.5 49c-4.2-4.5-11.3-4.6-15.8-.4-.1.1-.3.2-.4.4l-4 4c-4.5 4.3-4.6 11.3-.4 15.8.1.1.2.3.4.4l26 25.9c4.2 4.5 11.3 4.6 15.7.4l.4-.4 4-4c4.5-4.3 4.6-11.3.4-15.8-.1-.1-.2-.3-.4-.4L139.5 49zM96.3 23.6c4.5-4.2 4.6-11.3.4-15.8-.1-.1-.2-.3-.4-.4l-4-4C88.1-1 81-1.1 76.5 3.1c-.1.1-.3.2-.4.4L50.2 29.4c-4.5 4.3-4.6 11.3-.4 15.8.1.1.2.3.4.4l4 4c4.2 4.5 11.3 4.6 15.7.4l.4-.4 26-26zm23.1 23.1c4.5-4.2 4.6-11.3.4-15.8-.1-.1-.2-.3-.4-.4l-4-4c-4.2-4.5-11.3-4.6-15.8-.4-.1.1-.3.2-.4.4l-25.9 26c-4.5 4.2-4.6 11.3-.4 15.8.1.1.2.3.4.4l4 4c4.2 4.5 11.3 4.6 15.8.4.1-.1.3-.2.4-.4l25.9-26zm-23.1 68c4.5-4.3 4.6-11.3.4-15.8-.1-.1-.2-.3-.4-.4l-4-4c-4.2-4.5-11.3-4.6-15.7-.4l-.4.4-25.9 25.9c-4.5 4.3-4.6 11.3-.4 15.8.1.1.2.3.4.4l4 4c4.2 4.5 11.3 4.6 15.8.4.1-.1.3-.2.4-.4l25.8-25.9zm23.1 23.1c4.5-4.3 4.6-11.3.4-15.8-.1-.1-.2-.3-.4-.4l-4-4c-4.2-4.5-11.3-4.6-15.8-.4-.1.1-.3.2-.4.4l-25.4 26.5c-4.5 4.2-4.6 11.3-.4 15.8.1.1.2.3.4.4l4 4c4.2 4.5 11.3 4.6 15.8.4.1-.1.3-.2.4-.4l25.4-26.5zm189.1-22.5c.6 1.2 4 6.3 4 6.3-1.7 8.1-6.9 19-6.9 19l-.6.6c-19 7.5-49 13.8-80.7 1.1-19-7.5-32.9-22.5-38-42.1-5.7-20.4-1.7-42.4 11-59.4C211 22.4 232.9 12 262.9 10.3c11.5-.6 34.6 2.3 47.3 9.8h1.2s.6 31.7 0 32.9l-.6 1.7-9.2.6-.6-3.5c-1.7-9.2-5.8-33.4-39.8-31.7-14.4.6-26.5 8.1-35.2 19.6-11 14.4-13.8 33.4-9.2 55.4 4.6 20.8 20.8 34 32.9 39.2 5.2 1.7 21.3 5.8 33.4 0 10.4-5.2 20.8-13.3 25.4-19m116.4 33.4v-109c0-3.5 0-9.2-3.5-13.3-.6-.6-5.8-4.6-5.8-4.6v-4.6l29.4-5.8 2.9 1.7v117c.6 11 8.1 12.1 8.1 12.1v6.9l-31.1-.4zm129.8-7.5c-5.2-1.2-8.1-5.8-8.1-13.3V58.8l-2.3-1.1-29.4 5.8V68s5.2 4 5.8 4.6c3.5 4 3.5 9.8 3.5 13.3v41c-9.8 7.5-18.5 9.8-24.8 6.9-4.6-2.3-7.5-8.1-7.5-16.1V58.8l-2.3-1.2-29.4 5.8V68s5.2 4 5.8 4.6c4 4 4 9.8 3.5 13.3v35.2c-.1 4.1.3 8.1 1.2 12.1 1.7 7.5 6.3 12.7 12.7 15 10.4 4 25.4 0 40.9-10.4v9.8h32.3v-6.3l-1.9-.1zm146.4 0c-5.2-1.2-7.5-5.8-8.1-13.3v-42c0-9.8-5.2-28.3-24.2-28.3-14.4 0-23.6 8.6-28.8 13.3-3.5-8.3-11.8-13.5-20.8-13.3-9.2 0-17.3 3.5-25.4 10.4v-8.6l-2.9-1.7-29.5 5.8V68s5.2 4 5.8 4.6c3.5 4 3.5 9.8 3.5 13.3v61.7H603v-6.3l-1.7-.6c-5.2-1.1-7.5-5.2-7.5-13.3V77.9c4.8-4 11.1-5.9 17.3-5.2 4.6.6 9.8 4 9.8 21.3v53h31.7v-6.3l-1.7-.6c-5.2-1.1-7.5-5.2-8.1-13.3v-42c.1-2.3-.1-4.6-.6-6.9 5.8-5.2 11.5-5.8 17.3-5.2 4.6.6 9.8 4 9.8 21.3v53H701l.1-5.8zm-286.6-38c0-13.3-4.6-25.4-12.7-33.4-8.7-8.6-20.8-13.3-35.8-13.3-27.7 0-48.4 20.2-48.4 46.7 0 28.3 19 46.7 48.4 46.7 13.8 0 26.5-4.6 35.2-13.3 8.7-9 13.4-21 13.3-33.4m-48.4 36.3c-17.9 0-23.1-13.8-23.1-36.9 0-16.7 5.2-36.9 23.1-36.9s23.1 20.2 23.1 36.9c0 23.1-5.2 36.9-23.1 36.9M809.5 29.4c.2-6.7 5.8-11.9 12.5-11.8 6.4.2 11.6 5.3 11.8 11.8.2 6.5-5 12-11.5 12.1h-.6c-6.7 0-12.1-5.4-12.2-12.1m1.2 118.2V85.3c0-3.5 0-9.2-3.5-13.3-.6-.6-5.8-4.6-5.8-4.6v-4.6l29.4-5.8 2.9 1.7V128c0 7.5 2.9 12.1 7.5 13.3l1.7.6v6.4l-32.2-.7zM793.9 79c-6.3-11-14.4-17.9-24.2-20.2-13.8-3.5-27.7 2.9-36.3 7.5V12.7l-2.9-1.7-29.4 5.8v4.6s5.2 4 5.8 4.6c3.5 4 3.5 9.2 3.5 13.3v102.1l1.2.6c16.7 8.6 38.6 9.8 54.8 3.5 17.9-7.5 26-20.2 28.8-29.4 5.7-14.6 3.4-29-1.3-37.1m-24.2 48.4c-5.2 8.6-15.6 13.8-23.6 11.5s-12.7-11-12.7-24.2V77.3c.4 0 .9-.2 1.2-.6 5.2-2.3 14.4-7.5 26.5-1.1 6.8 3.9 11.8 10.3 13.8 17.9 2.9 10.9 1.2 23-5.2 33.9m152.8 11l-1.7-.6c-1.2 0-3.5-3.5-3.5-8.6v-41c0-12.1-4-21.3-11-25.9-6.3-4.6-15-5.2-25.4-1.7-12.1 4-30 19.6-32.9 23.1l-.6.6v1.1c0 1.1 1.7 2.9 2.3 4l.6.6h20.2v-5.8c0-8.1 5.2-12.1 9.8-12.7s7.5-.6 9.8 1.2c2.9 2.3 4.6 8.1 4.6 17.3v5.2l-42.1 18.5-.6.6v.6c-4 11.5-2.9 20.8 2.3 27.1 8.7 9.8 30 11 61.1 4 2.3-.6 7.5-1.1 7.5-1.1-.4-.8-.4-6.6-.4-6.5m-27.1-34.1V136c-6.9 4.6-13.8 5.2-19 1.1-5.2-4.6-6.3-12.7-2.9-20.8l21.9-12z"/></svg>