<svg version="1.1" id="Слой_1" xmlns="http://www.w3.org/2000/svg" x="0" y="0" viewBox="0 0 919 102.6" xml:space="preserve"><style/><g id="Слой_2_1_"><path class="st0" d="M0 100.2V0h40l31 75.3L99.3 0h44l.6 100.2h-31.8l-.3-79.8-29.7 79.8h-33L18.8 19.9l-.2 80.3zm166.7 0V0h99.1v15.3h-68.3v25.6H256v14.5h-58.3v29.2h68.1v15.6zm386.3 0V0h99.2v15.3h-68.4v25.6h58.5v14.5H584v29.2h69.3v15.6zM671.7 0v100.2h96V84.9H701V0zM783 0v100.2h96V84.9h-66.7V0zm129.3 91.5c.5-1.3.5-2.8 0-4.1-.4-.6-1.1-1.1-1.8-1.3h-6.3v11.5h1.5l.6-.5v-3.7l1.5-.1L910 97h2.6v-.9l-1.8-3.2c.6-.3 1.2-.8 1.5-1.4zm-2.9-.9h-3.1v-2.3h2.8c.1 0 .2 0 .3.1.4.2.6.5.6 1.4.1.2-.2.6-.6.8z"/><path class="st0" d="M908 80.6c-6.1 0-11 4.9-11 11s4.9 11 11 11 11-4.9 11-11-4.9-11-11-11zm.1 19c-4.5 0-8.1-3.6-8.1-8.1s3.6-8.1 8.1-8.1 8.1 3.6 8.1 8.1-3.6 8-8.1 8.1zM503.3 60.9s26.2-1 31.2-27.4c.2-1.3.3-2.7.3-4C533.3 6.6 506.3 0 506.3 0h-87v100.2h30.8V62.4h21.5l28.3 37.8h35.3l-31.9-39.3zm-12.7-14.3h-40.8v-31h39.9c12.4 2.6 14 13.3 14 13.3v4.6c-2.4 10-13.1 13.1-13.1 13.1zM368.7 60.9s26.2-1 31.2-27.4c.3-1.3.3-2.7.3-4C398.7 6.6 371.7 0 371.7 0h-87v100.2h30.8V62.4H337l28.3 37.8h35.3l-31.9-39.3zM356 46.6h-40.8v-31h39.9c12.4 2.6 14 13.3 14 13.3v4.6c-2.4 10-13.1 13.1-13.1 13.1z"/></g></svg>