<svg version="1.1" id="Слой_1" xmlns="http://www.w3.org/2000/svg" x="0" y="0" viewBox="0 0 965.2 597.2" xml:space="preserve"><style/><path class="st0" d="M481.1.1c57.8 0 115.7-.3 173.5.2 20.3.2 37 15.9 38.5 36.1.2 3.3.1 6.7.1 10v332c0 26.6-15.6 42.4-42.1 42.4-51.3.1-102.7.1-154 0H309.6c-14.8 0-27-5.2-35.2-18.1-4.6-7.1-6.1-15-6.1-23.3V40.9c0-11.9 3.8-22.4 13-30.2C289 4.2 298 .1 308.5.1h172.6zm-.6 359.7c43 .1 86-2 128.8-6.5 11.5-1.2 17.7-7.3 17.7-18.7.1-23.2.2-46.3 0-69.5-.1-14.1-6.3-25-18.8-31.9-26.9-15-53.8-30-80.8-44.9-30.4-16.9-60.8-33.9-91.2-50.8-4.3-2.4-7.9-5.6-9-10.7-2.3-10.7 3.7-18.1 15.2-18.2 22.5-.2 45-.4 67.5.2 5.9.1 12.1 2.3 17.5 5 10.8 5.2 21 11.5 31.6 17.2 6.7 3.8 14.3 5.8 22 5.6 11.3-.3 22.7 0 34 0 9.9 0 12.1-2.3 12.1-12.5V88.6c0-12.8-5.4-19.5-18.3-20.3-30.6-1.9-61.2-3.3-91.8-4.8-54.7-2.8-109.3-.5-163.7 4.8-13.2 1.3-18.2 6.9-18.2 20.1 0 21.5.4 43-.2 64.5-.5 17.2 6.4 29.1 21.5 37.4 45.4 25 90.6 50.2 135.8 75.4 11.5 6.4 23 12.8 34.4 19.3 7.1 4.1 9.5 9.7 7.9 17.2-1.5 7.2-5.1 10.1-13.9 11.1-2 .2-4 .3-6 .2-17 0-34-.4-51 .1-12.9.4-24.7-1.8-35.7-8.8-8.5-5.3-17.3-10-26.3-14.3-4.4-2.2-9.3-4.3-14.1-4.5-14.6-.7-29.3-.6-44-.5-6.2.1-8.3 2.5-8.4 8.8-.1 14.2-.1 28.3 0 42.5.1 9.2 5.7 15.6 14.8 16.6 10.9 1.2 21.8 2.5 32.8 2.9 32.6 1.2 65.2 2.3 97.8 3.5zM607.6 592h-27.5c-.1-2.1-.3-4.2-.3-6.3-.3-20.8-.5-41.6-1-62.4-.2-3.8-1.1-7.6-2.6-11.1-2.7-6.8-8.1-10.9-15.2-11.3-8.6-.5-17.3-.3-25.9.5-8.2.7-13.8 5.9-14.8 14-1.5 12.2-2.2 24.5-2.6 36.8-.4 13.1-.1 26.3-.1 40.1-8.7 0-17.1.1-25.5-.1-.7 0-1.9-1.9-1.9-2.9.2-25.6-2.2-51.3 1.5-76.8 3.3-23.1 13.4-33.4 36.3-37.4 15.7-2.8 31.5-3 47 1.4 5.6 1.6 10.7 4.6 16.1 6.7 1.6.6 4.2.8 5.4 0 8.7-6.1 19-9.4 29.6-9.3 13.1 0 26.3.6 39.2 2.8 17.9 3.1 28.9 15.8 29.8 34 1.3 26.3 1.6 52.6 2.3 78.9 0 .9-.2 1.8-.3 2.7h-27c-.1-1.8-.3-3.6-.3-5.3-.1-18.7-.1-37.3-.4-56-.1-4.7-.7-9.3-1.8-13.8-2.1-9.9-7.1-14.9-17.2-16-7.8-.8-15.6-.9-23.4-.2-11.6 1.1-18.6 9.8-18.8 22.6-.3 20.8-.4 41.6-.6 62.4v6zm-461.8-87.6c0-7.7-.1-15 .1-22.2 0-1.1 1.9-2.8 3.1-3.1 27.3-6.2 54.7-10.2 82.4-2.1 15.3 4.5 24.1 14.4 24.7 30.2.7 18.6.6 37.3-.2 55.9-.7 14.6-10.6 23.3-23.6 27.3-25 7.7-50.4 7.6-75.3.1-24.5-7.3-25.6-30.1-19.9-45.1 3.1-8.2 10.4-12.8 18.4-14.9 13.6-3.6 27.6-6.2 41.4-9 6-1.2 12.1-2.1 18.2-3.1.5-.1 1-.1 1.5-.2 6.4-1.7 10.8-5.8 10.4-9.9-.7-6.1-5.9-7.3-10.5-8.3-14.6-3.1-29.2-1.8-43.7.2-8.9 1-17.7 2.7-27 4.2zm84.3 34.6c-21 4.4-40.6 8.3-60 12.6-6 1.3-7.7 8.7-3.3 13.1 1.6 1.7 3.7 2.9 5.9 3.4 14.9 3.1 29.7 3.6 44.5-.8 5.8-1.7 10.3-5.2 11.5-11.3 1-5.3.9-10.8 1.4-17zM120 504.2c-9-1.8-17.6-4-26.2-5-17.7-2.1-35.5-3.3-53.2.6-2.8.6-5.9 2-7.6 4.1-4.4 5.2-1.4 12.2 5.7 13.5 13.7 2.5 27.6 4.6 41.3 6.9 7.9 1.3 15.8 2.5 23.6 4.2 13.9 3 20.6 10.1 22.6 23.9s-1.2 25.5-13.4 33.5c-8.3 5.4-17.8 7.5-27.5 8.3-24.9 2.3-50 .8-74.5-4.5-4.8-1-6.8-3-6.4-8 .4-6.4.1-12.9.1-19.6 9.4 2 18.1 4.1 26.9 5.7 18.3 3.2 36.8 3.9 55.2.7 2.2-.4 4.3-1.5 6-3 5.3-5.2 3.6-11.5-3.5-13-10.6-2.2-21.3-3.9-31.9-5.7-8.7-1.4-17.5-2.2-26.1-4.1-12.2-2.7-23.4-7.5-28.4-20.3-7.2-18.3 1.5-36.5 20-42.8 20.5-7 41.6-6.9 62.8-5.4 9.9.7 19.8 2.8 29.6 4.2 3.9.5 5.3 2.5 5.2 6.4-.5 6.3-.3 12.7-.3 19.4zm588.2 28.5c.9-7.8 1.5-17.7 3.4-27.3 2.9-15.1 12.3-24.8 27.2-28.8 21.2-5.6 42.5-5.2 63.7-.2 15.6 3.7 24.2 14.3 27.6 29.6 4.1 18.4 4.3 37.5.6 56-3.7 18.6-15.3 30-34.2 32.8-17 2.5-34.2 2.8-51.2-.3-21.5-3.9-32.2-15.4-34.9-37-1.1-7.5-1.4-15.1-2.2-24.8zm63.4 38v-.7c3.8 0 7.7.3 11.5 0 11.3-1 19.1-6.8 20.1-17.3 1.1-11.9 1-23.9-.2-35.8-1-10.1-7.7-15.6-17.9-16.3-9.3-.6-18.6-.6-27.9-.1-9.7.4-16.5 6.4-18.8 15.7-3 12.3-3 25.2 0 37.5 2.1 8.9 7.9 14.1 16.9 15.5 5.3.8 10.8 1 16.3 1.5zm-416.4-34.9c.7-8.6 1-16.4 2.1-24.1 3.3-22 13.1-32.1 34.9-36.5 18.5-3.8 37.6-3.4 55.9 1.1 16.3 3.8 26 14.2 29.2 30.5 3.8 19.2 3.7 38.9-.4 58-3.2 15-12.4 24.8-27.5 28.5-20.1 5-41.1 5.2-61.3.5-17.2-3.9-27.3-14.6-30.1-31.8-1.5-8.9-1.9-17.9-2.8-26.2zm61-36c-4.2.2-7.8.3-11.5.6-10.9.9-17.2 6.4-19.8 17.1-2.6 11.2-2.6 22.9-.3 34.2 2.1 10.7 7.9 16.4 18.9 17.6 9.3.9 18.6 1 27.9.3 8.7-.6 15.6-5.2 18.1-14.1 4.1-13.6 4-28.2-.3-41.8-2.5-7.9-8.4-12.2-16.6-13.1-5.5-.6-11.2-.6-16.4-.8zm548.5 92.3c-8.1 0-16.1-.1-24.1 0-3.7.1-3.3-2.4-3.3-4.7 0-17.3.3-34.7-.1-52-.1-7.1-1-14.2-2.6-21.2-2.1-8.4-8.4-13.2-17-13.7-8.8-.6-17.6-.5-26.4 0-11.8.8-19.2 8.4-19.7 20.5-.8 18.1-.9 36.3-1.2 54.4-.1 5.3 0 10.6 0 16.3H843c-.1-1.5-.4-3.1-.4-4.7.2-22.3.1-44.6.7-66.9.3-11.9 2.6-23.5 11.2-32.8 5-5.4 11.6-9.2 18.8-10.8 19.8-5 40.5-5.1 60.3-.2 17.8 4.4 28.4 15.7 29.4 33.9 1.5 26.7 1.5 53.6 2.2 80.4-.1.5-.3 1-.5 1.5zm-615.3-22.8c1.2 7.2 2.4 14.7 3.8 22.7-19.7 1.4-38.9 3.7-57.8-2-17.3-5.1-26.5-16.2-26.9-34.2-.6-26.5-.2-53-.2-79.4.1-.7.3-1.4.5-2 8 0 16.1-.1 24.2.1.8 0 2.2 1.4 2.4 2.4.3 2.1.5 4.3.4 6.5 0 21.1 0 42.3-.1 63.5 0 15 6.7 22.1 21.8 22.5 10.3.1 20.8-.1 31.9-.1z"/></svg>