<svg id="Слой_1" data-name="Слой 1" xmlns="http://www.w3.org/2000/svg" viewBox="0 0 165 35"><path d="M36 13.48l-13.46-.06L21.09 0l-7.27 13.35L0 13.27l9.08 8.37L1.93 35l13.44-8.5 9.43 8.4-1.34-13.5zm-26.83 14l3.46-6.6-5.46-4.82 19.56.12zM157 33c-3.1 0-5-.86-6.12-2.69l-7.1-10.63L139.21 33H133l6.67-20h1.4c2.58 0 4.51.37 6 2.58l7.2 10.88 4.5-13.46H165l-6.67 20H157zM33 33l1.37-4.19H48.8a4.69 4.69 0 002.38-.5 1.53 1.53 0 00.7-.86.64.64 0 00-.13-.5 2.17 2.17 0 00-1.19-.66l-9.4-2.68a5.93 5.93 0 01-3.78-2.7 3.31 3.31 0 01-.16-2.7 7.12 7.12 0 013-3.5A9.82 9.82 0 0145.85 13H60l-1.36 4.2h-13c-.4 0-1.58 0-2 .48a1.26 1.26 0 00-.3 1.1 1.46 1.46 0 00.9.78l.48.18 9.38 2.68a5.83 5.83 0 013.7 2.6 3.45 3.45 0 01.2 2.76 5.53 5.53 0 01-3 3.6A14.47 14.47 0 0148.31 33zm29.3-20L61 17.14h8.26L64.18 33h6l5.08-15.86h7.4L84 13zm44.45 14.76l20.74-8c2.4-.92 2-2.66.52-2.66h-12.38l-1.45 4.34-6.08 2.32L111.67 13h17.86a4.81 4.81 0 013.47 1.18 3.72 3.72 0 011 2.82c-.08 2.53-2.07 5.26-4.85 6.66-.28.14-.7.33-1.15.51l4.35 8.63h-6.25l-3.36-6.67L105 33zm1.91-10.6L110 13H88.08s-4.74 14.77-4.74 14.83c-1.14 3.4.75 5.17 3.45 5.17h16.8l1.34-4.16H91a1.71 1.71 0 01-1.32-.43 1.52 1.52 0 010-1.35l.75-2.18h12.4l1.25-3.8H91.61l1.33-3.93z" fill="#fff"/></svg>