<svg id="Слой_1" data-name="Слой 1" xmlns="http://www.w3.org/2000/svg" viewBox="0 0 919 102.63"><defs><style>.cls-1{fill:#fff}</style></defs><g id="Слой_2" data-name="Слой 2"><path class="cls-1" d="M0 100.2V.03h40.01l31 75.27L99.34.03h44l.57 100.17h-31.82l-.25-79.82-29.75 79.82h-33L18.84 19.88l-.25 80.32H0zm166.68 0V.03h99.16V15.3h-68.33v25.67h58.5v14.5h-58.33v29.16h68.16v15.57h-99.16zm386.33 0V.03h99.17V15.3h-68.34v25.67h58.5v14.5h-58.33v29.16h69.33v15.57H553.01zM671.68.03V100.2h96V84.97h-66.67V.03h-29.33zm111.33 0V100.2h96V84.97h-66.67V.03h-29.33z"/><path class="cls-1" d="M912.34 91.46a6.55 6.55 0 000-4.15 3.3 3.3 0 00-1.81-1.31h-6.25v11.5h1.53l.62-.5v-3.73l1.47-.06L910 97h2.57v-.87L910.78 93a4.24 4.24 0 001.56-1.54zm-2.94-.9h-3.06v-2.33h2.84a.52.52 0 01.27.07c.38.21.6.49.6 1.35a1 1 0 01-.63 1z" transform="translate(0 .03)"/><path class="cls-1" d="M908 80.6a11 11 0 1011 11 11 11 0 00-11-11zm.12 19a8.1 8.1 0 118.1-8.1 8.1 8.1 0 01-8.1 8zM503.34 60.85s26.21-1 31.18-27.37a16.26 16.26 0 00.26-4C533.34 6.6 506.34 0 506.34 0h-87v100.16h30.75V62.35h21.5l28.25 37.81h35.25zM490.59 46.6h-40.75v-31h39.88c12.43 2.63 14 13.29 14 13.29v4.59c-2.38 10-13.13 13.12-13.13 13.12zM368.72 60.85s26.2-1 31.17-27.37a15.79 15.79 0 00.27-4C398.71 6.6 371.72 0 371.72 0h-87v100.16h30.75V62.35H337l28.25 37.81h35.25zM356 46.6h-40.78v-31h39.87c12.44 2.63 14 13.29 14 13.29v4.59C366.72 43.48 356 46.6 356 46.6z" transform="translate(0 .03)"/></g></svg>