<svg viewBox="0 0 258.42 202.88" xmlns="http://www.w3.org/2000/svg" xmlns:xlink="http://www.w3.org/1999/xlink"><style>:root&gt;svg{display:none}:root&gt;svg:target{display:block}</style><svg data-name="Слой 1" viewBox="0 0 32.88 13.01" id="arrow" xmlns="http://www.w3.org/2000/svg"><path fill="#fff" d="M1.44 11.46l15-9.96 15 9.96"/><path d="M2.2 12.76l15-10h-1.51l15 10c1.61 1.07 3.11-1.53 1.51-2.59l-15-10a1.46 1.46 0 00-1.51 0l-15 10c-1.61 1.06-.11 3.66 1.51 2.59z"/></svg><svg viewBox="0 0 32 32" id="icon-vk" xmlns="http://www.w3.org/2000/svg"><path class="bicon-vk" d="M29 0H3C1.35 0 0 1.35 0 3v26c0 1.65 1.35 3 3 3h26c1.65 0 3-1.35 3-3V3c0-1.65-1.35-3-3-3zm-3.081 22.4l-2.925.044s-.631.125-1.456-.444c-1.094-.75-2.125-2.706-2.931-2.45-.813.256-.788 2.012-.788 2.012s.006.375-.181.575c-.2.219-.6.262-.6.262h-1.306s-2.888.175-5.431-2.475c-2.775-2.887-5.225-8.619-5.225-8.619s-.144-.375.013-.556c.175-.206.644-.219.644-.219l3.131-.019s.294.05.506.206c.175.125.269.369.269.369s.506 1.281 1.175 2.438c1.306 2.256 1.919 2.75 2.362 2.513.644-.35.45-3.194.45-3.194s.012-1.031-.325-1.488c-.262-.356-.756-.463-.969-.488-.175-.025.113-.431.488-.619.563-.275 1.556-.294 2.731-.281.913.006 1.181.069 1.538.15 1.081.262.712 1.269.712 3.681 0 .775-.137 1.863.419 2.219.238.156.825.025 2.294-2.469.694-1.181 1.219-2.569 1.219-2.569s.113-.25.288-.356c.181-.106.425-.075.425-.075l3.294-.019s.988-.119 1.15.331c.169.469-.369 1.563-1.712 3.356-2.206 2.944-2.456 2.669-.619 4.369 1.75 1.625 2.113 2.419 2.175 2.519.712 1.2-.813 1.294-.813 1.294z"/></svg><svg data-name="Слой 1" viewBox="0 0 31.08 20.64" id="mail" xmlns="http://www.w3.org/2000/svg"><rect x=".3" y=".4" width="30.48" height="20.24" rx=".46"/><path d="M30.78.41l-14.77 10.9a.8.8 0 01-.93 0L.3.41"/></svg><svg class="dold-phone-icon" data-name="Слой 2" viewBox="0 0 258.42 202.88" id="old-phone" xmlns="http://www.w3.org/2000/svg"><defs><style>.dcls-2{fill:#373841}</style></defs><path d="M30.94 176.32h195.87v26.06H30.94z"/><path class="dcls-2" d="M226.81 173.22H30.94s-1.55-39.49 41.8-96.52V27.93h25.52v18.83h61.16V27.93h25.55V76.7c43.35 57 41.8 96.52 41.8 96.52H30.93"/><path class="dcls-2" d="M61.65 84.51s-4.26 8.9-17.42 10.83-15.87 2.13-28.65 0C4.36 93.41.68 87.41.68 87.41V61.28s26.52 13.55 61 0zm195.61 0s-4.26 8.9-17.42 10.83-15.87 2.13-28.65 0c-11.22-1.93-14.9-7.93-14.9-7.93V61.28s26.51 13.55 61 0z"/><path class="dcls-2" d="M127.51.02c33.65-.49 82.11 6.27 90.35 8.55 9.1 2.52 23.23 7 29 15.1s13.94 28.84 10.84 31-9.87 9.3-34.64 8.33-29.23-12.39-29.23-12.39 1.07-9.29-5.85-14.13V25.22h-30.26v3.67c-26.64-4.06-57.09 0-57.09 0v-3.67H70.37v11.22c-6.92 4.84-5.85 14.13-5.85 14.13s-4.45 11.42-29.23 12.39S3.75 56.76.65 54.63s5-22.83 10.84-31 19.93-12.58 29-15.1C48.52 6.37 94.09 0 127.51.02z"/><path id="dcls-1" d="M129.54 61.72a53.39 53.39 0 1053.38 53.38 53.38 53.38 0 00-53.38-53.38zM89.41 96.39a8.32 8.32 0 11-8.32 8.32 8.33 8.33 0 018.32-8.32zm-8.32 29.35a8.33 8.33 0 118.32 8.32 8.32 8.32 0 01-8.32-8.32zm18.66 27a8.32 8.32 0 118.33-8.32 8.32 8.32 0 01-8.33 8.3zm0-57.83a8.32 8.32 0 118.33-8.32 8.32 8.32 0 01-8.33 8.3zm18 68.28a8.32 8.32 0 118.32-8.32 8.32 8.32 0 01-8.29 8.3zm0-79.68a8.33 8.33 0 118.32-8.33 8.33 8.33 0 01-8.29 8.31zm20.83 79.68a8.32 8.32 0 118.33-8.32 8.32 8.32 0 01-8.3 8.3zm0-79a8.33 8.33 0 118.33-8.32 8.33 8.33 0 01-8.3 8.3zm17.51 67.75a8.32 8.32 0 118.32-8.32 8.33 8.33 0 01-8.29 8.3zm.82-57a8.32 8.32 0 118.32-8.32 8.32 8.32 0 01-8.29 8.27z" fill="#fff" stroke-miterlimit="10" stroke="#373841"/><path class="dcls-2" d="M184.34 127.62a1.84 1.84 0 00-2.69-1.06c-2 1.19-5.33 2.66-8 1.49a58.62 58.62 0 01-9.23-5.67 1.87 1.87 0 00-1.77-.22 4.37 4.37 0 00-3 4.34 1.89 1.89 0 00.55 1.3c3.35 3.42 11.68 8.91 19.77 8.28 5.9-.47 5.29-5.45 4.37-8.46z"/></svg></svg>