<svg viewBox="0 0 258.42 202.88" xmlns="http://www.w3.org/2000/svg" xmlns:xlink="http://www.w3.org/1999/xlink"><style>:root&gt;svg{display:none}:root&gt;svg:target{display:block}</style><svg data-name="Слой 1" viewBox="0 0 31.08 20.64" id="mail" xmlns="http://www.w3.org/2000/svg"><rect x=".3" y=".4" width="30.48" height="20.24" rx=".46" fill="#373841"/><path d="M30.78.41l-14.77 10.9a.8.8 0 01-.93 0L.3.41" stroke="#fff" stroke-miterlimit="10" fill="#373841"/></svg><svg id="old-phone" data-name="Слой 2" viewBox="0 0 258.42 202.88" xmlns="http://www.w3.org/2000/svg"><defs><style>.bcls-2{fill:#373841}</style></defs><path stroke-miterlimit="10" stroke="#fff" fill="#373841" d="M30.94 176.32h195.87v26.06H30.94z"/><path class="bcls-2" d="M1178.55 418.94H982.68s-1.55-39.49 41.8-96.52v-48.77H1050v18.83h61.16v-18.83h25.55v48.77c43.35 57 41.8 96.52 41.8 96.52H982.67" transform="translate(-951.74 -245.72)" fill="#373841"/><path class="bcls-2" d="M1013.39 330.23s-4.26 8.9-17.42 10.83-15.87 2.13-28.65 0c-11.22-1.93-14.9-7.93-14.9-7.93V307s26.52 13.55 61 0zm195.61 0s-4.26 8.9-17.42 10.83-15.87 2.13-28.65 0c-11.22-1.93-14.9-7.93-14.9-7.93V307s26.51 13.55 61 0z" transform="translate(-951.74 -245.72)" fill="#373841"/><path class="bcls-2" d="M1079.25 245.74c33.65-.49 82.11 6.27 90.35 8.55 9.1 2.52 23.23 7 29 15.1s13.94 28.84 10.84 31-9.87 9.3-34.64 8.33-29.23-12.39-29.23-12.39 1.07-9.29-5.85-14.13v-11.26h-30.26v3.67c-26.64-4.06-57.09 0-57.09 0v-3.67h-30.26v11.22c-6.92 4.84-5.85 14.13-5.85 14.13s-4.45 11.42-29.23 12.39-31.54-6.2-34.64-8.33 5-22.83 10.84-31 19.93-12.58 29-15.1c8.03-2.16 53.6-8.53 87.02-8.51z" transform="translate(-951.74 -245.72)" fill="#373841"/><path d="M1081.28 307.44a53.39 53.39 0 1053.38 53.38 53.38 53.38 0 00-53.38-53.38zm-40.13 34.67a8.32 8.32 0 11-8.32 8.32 8.33 8.33 0 018.32-8.32zm-8.32 29.35a8.33 8.33 0 118.32 8.32 8.32 8.32 0 01-8.32-8.32zm18.66 27a8.32 8.32 0 118.33-8.32 8.32 8.32 0 01-8.33 8.3zm0-57.83a8.32 8.32 0 118.33-8.32 8.32 8.32 0 01-8.33 8.3zm18 68.28a8.32 8.32 0 118.32-8.32 8.32 8.32 0 01-8.29 8.3zm0-79.68a8.33 8.33 0 118.32-8.33 8.33 8.33 0 01-8.29 8.31zm20.83 79.68a8.32 8.32 0 118.33-8.32 8.32 8.32 0 01-8.3 8.3zm0-79a8.33 8.33 0 118.33-8.32 8.33 8.33 0 01-8.3 8.3zm17.51 67.75a8.32 8.32 0 118.32-8.32 8.33 8.33 0 01-8.29 8.3zm.82-57a8.32 8.32 0 118.32-8.32 8.32 8.32 0 01-8.29 8.27z" transform="translate(-951.74 -245.72)" fill="#fff"/><path class="bcls-2" d="M1136.08 373.34a1.84 1.84 0 00-2.69-1.06c-2 1.19-5.33 2.66-8 1.49a58.62 58.62 0 01-9.23-5.67 1.87 1.87 0 00-1.77-.22 4.37 4.37 0 00-3 4.34 1.89 1.89 0 00.55 1.3c3.35 3.42 11.68 8.91 19.77 8.28 5.9-.47 5.29-5.45 4.37-8.46z" transform="translate(-951.74 -245.72)" fill="#373841"/></svg></svg>